<svg width="429" height="51" viewBox="0 0 429 51" fill="none" xmlns="http://www.w3.org/2000/svg">
<g clip-path="url(#clip0_1_597)">
<path d="M44.0464 30.98C44.8762 30.98 45.672 30.6723 46.2587 30.1247C46.8454 29.5771 47.175 28.8344 47.175 28.06C47.1731 27.7784 47.1261 27.4986 47.0357 27.23L41.0679 28.9C41.2574 29.5002 41.65 30.0271 42.1868 30.402C42.7236 30.7769 43.376 30.9796 44.0464 30.98Z" fill="#D15187"/>
<path d="M44.0464 25.1399C43.2186 25.1425 42.4255 25.4513 41.8411 25.9987C41.2567 26.546 40.9286 27.2872 40.9286 28.0599C40.9355 28.3451 40.986 28.628 41.0786 28.8999L47.0464 27.2299C46.8547 26.6262 46.459 26.0965 45.9183 25.7199C45.3777 25.3432 44.7211 25.1398 44.0464 25.1399Z" fill="#A445BB"/>
<path d="M6.82501 28.06C6.82425 28.7596 7.09358 29.4361 7.58368 29.9655C8.07377 30.4949 8.75181 30.8418 9.4936 30.9426C10.2354 31.0434 10.9913 30.8914 11.6228 30.5144C12.2543 30.1375 12.7191 29.5608 12.9322 28.89L6.9643 27.23C6.87389 27.4986 6.82694 27.7784 6.82501 28.06Z" fill="#D15187"/>
<path d="M9.95358 25.1399C9.28077 25.1419 8.6266 25.3464 8.08811 25.7229C7.54963 26.0994 7.15554 26.6278 6.96429 27.2299L12.9322 28.8899C13.0262 28.6218 13.0768 28.342 13.0822 28.0599C13.0822 27.6764 13.0012 27.2967 12.844 26.9425C12.6868 26.5882 12.4563 26.2663 12.1658 25.9951C11.8753 25.724 11.5304 25.5089 11.1508 25.3622C10.7713 25.2154 10.3644 25.1399 9.95358 25.1399Z" fill="#A445BB"/>
<path d="M27 36.0201C32.2309 36.0201 36.4714 32.0623 36.4714 27.1801C36.4714 22.2979 32.2309 18.3401 27 18.3401C21.7691 18.3401 17.5286 22.2979 17.5286 27.1801C17.5286 32.0623 21.7691 36.0201 27 36.0201Z" fill="#A445BB"/>
<path d="M52.5857 23.64H35.6786C35.0058 22.2011 33.9345 20.9554 32.575 20.031C31.2154 19.1065 29.6166 18.5367 27.9429 18.38V12.38C27.9443 12.2662 27.9215 12.1533 27.8759 12.0478C27.8302 11.9423 27.7625 11.8463 27.6768 11.7654C27.5911 11.6845 27.4891 11.6203 27.3766 11.5764C27.2641 11.5326 27.1434 11.51 27.0215 11.51C26.8996 11.51 26.7789 11.5326 26.6664 11.5764C26.5539 11.6203 26.4518 11.6845 26.3661 11.7654C26.2804 11.8463 26.2127 11.9423 26.1671 12.0478C26.1214 12.1533 26.0986 12.2662 26.1 12.38V18.38C24.4263 18.5367 22.8275 19.1065 21.468 20.031C20.1084 20.9554 19.0371 22.2011 18.3643 23.64H1.41432C1.1671 23.64 0.930007 23.7317 0.755196 23.8948C0.580385 24.058 0.482178 24.2793 0.482178 24.51V24.75C0.482341 24.9379 0.546909 25.1207 0.666436 25.2719C0.785963 25.423 0.954175 25.5345 1.14646 25.59L6.96432 27.23C7.17006 26.5508 7.6333 25.9645 8.26777 25.5803C8.90224 25.1962 9.66468 25.0404 10.4131 25.1419C11.1615 25.2434 11.8449 25.5954 12.3359 26.1322C12.8269 26.6691 13.0921 27.3542 13.0822 28.06C13.0768 28.3421 13.0262 28.6219 12.9322 28.89L18.1715 30.36V30.15C19.5429 32.96 22.9715 34.25 26.9893 34.25C31.0072 34.25 34.4893 32.95 35.8179 30.13V30.36L41.0465 28.9C40.9539 28.6281 40.9034 28.3452 40.8965 28.06C40.8865 27.3542 41.1517 26.6691 41.6428 26.1322C42.1338 25.5954 42.8171 25.2434 43.5656 25.1419C44.314 25.0404 45.0764 25.1962 45.7109 25.5803C46.3453 25.9645 46.8086 26.5508 47.0143 27.23L52.8322 25.6C53.0245 25.5445 53.1927 25.433 53.3122 25.2819C53.4317 25.1307 53.4963 24.9479 53.4965 24.76V24.51C53.4965 24.2827 53.4013 24.0644 53.2311 23.9018C53.0609 23.7392 52.8292 23.6452 52.5857 23.64Z" fill="#6F2CFF"/>
<path d="M32.6786 22.76V23.64L27 25.41L21.3214 23.64V22.76H32.6786Z" fill="#F5F5F5"/>
</g>
<path d="M81.56 21.1416L78.0795 31.75H75.2758L80.0307 18.9531H81.8149L81.56 21.1416ZM84.4516 31.75L80.9623 21.1416L80.6811 18.9531H82.4828L87.2641 31.75H84.4516ZM84.2934 26.9863V29.0518H77.5346V26.9863H84.2934ZM90.9643 22.2402V31.75H88.4243V22.2402H90.9643ZM88.2661 19.7617C88.2661 19.3926 88.395 19.0879 88.6528 18.8477C88.9106 18.6074 89.2563 18.4873 89.6899 18.4873C90.1176 18.4873 90.4604 18.6074 90.7182 18.8477C90.9819 19.0879 91.1137 19.3926 91.1137 19.7617C91.1137 20.1309 90.9819 20.4355 90.7182 20.6758C90.4604 20.916 90.1176 21.0361 89.6899 21.0361C89.2563 21.0361 88.9106 20.916 88.6528 20.6758C88.395 20.4355 88.2661 20.1309 88.2661 19.7617ZM95.5873 24.3145V31.75H93.0561V22.2402H95.4379L95.5873 24.3145ZM98.4526 22.1787L98.4086 24.5254C98.2856 24.5078 98.1362 24.4932 97.9604 24.4814C97.7905 24.4639 97.6352 24.4551 97.4946 24.4551C97.1371 24.4551 96.8266 24.502 96.5629 24.5957C96.3051 24.6836 96.0883 24.8154 95.9125 24.9912C95.7426 25.167 95.6137 25.3809 95.5258 25.6328C95.4438 25.8848 95.3969 26.1719 95.3852 26.4941L94.8754 26.3359C94.8754 25.7207 94.937 25.1553 95.06 24.6396C95.183 24.1182 95.3618 23.6641 95.5961 23.2773C95.8364 22.8906 96.1293 22.5918 96.475 22.3809C96.8207 22.1699 97.2162 22.0645 97.6616 22.0645C97.8022 22.0645 97.9457 22.0762 98.0922 22.0996C98.2387 22.1172 98.3588 22.1436 98.4526 22.1787ZM102.32 18.25V31.75H99.7797V18.25H102.32ZM107.083 22.2402V31.75H104.543V22.2402H107.083ZM104.385 19.7617C104.385 19.3926 104.514 19.0879 104.772 18.8477C105.03 18.6074 105.375 18.4873 105.809 18.4873C106.237 18.4873 106.58 18.6074 106.837 18.8477C107.101 19.0879 107.233 19.3926 107.233 19.7617C107.233 20.1309 107.101 20.4355 106.837 20.6758C106.58 20.916 106.237 21.0361 105.809 21.0361C105.375 21.0361 105.03 20.916 104.772 20.6758C104.514 20.4355 104.385 20.1309 104.385 19.7617ZM111.654 24.2705V31.75H109.122V22.2402H111.496L111.654 24.2705ZM111.285 26.6611H110.599C110.599 25.958 110.69 25.3252 110.872 24.7627C111.053 24.1943 111.308 23.7109 111.636 23.3125C111.964 22.9082 112.354 22.6006 112.805 22.3896C113.262 22.1729 113.772 22.0645 114.334 22.0645C114.78 22.0645 115.187 22.1289 115.556 22.2578C115.925 22.3867 116.242 22.5918 116.505 22.873C116.775 23.1543 116.98 23.5264 117.121 23.9893C117.267 24.4521 117.34 25.0176 117.34 25.6855V31.75H114.791V25.6768C114.791 25.2549 114.733 24.9268 114.616 24.6924C114.498 24.458 114.326 24.2939 114.097 24.2002C113.874 24.1006 113.599 24.0508 113.271 24.0508C112.931 24.0508 112.635 24.1182 112.383 24.2529C112.137 24.3877 111.932 24.5752 111.768 24.8154C111.61 25.0498 111.49 25.3252 111.408 25.6416C111.326 25.958 111.285 26.2979 111.285 26.6611ZM123.642 31.9258C122.904 31.9258 122.242 31.8086 121.656 31.5742C121.07 31.334 120.572 31.0029 120.162 30.5811C119.757 30.1592 119.447 29.6699 119.23 29.1133C119.013 28.5508 118.905 27.9531 118.905 27.3203V26.9688C118.905 26.248 119.007 25.5889 119.212 24.9912C119.417 24.3936 119.71 23.875 120.091 23.4355C120.478 22.9961 120.947 22.6592 121.497 22.4248C122.048 22.1846 122.669 22.0645 123.361 22.0645C124.035 22.0645 124.632 22.1758 125.154 22.3984C125.675 22.6211 126.112 22.9375 126.463 23.3477C126.821 23.7578 127.09 24.25 127.272 24.8242C127.454 25.3926 127.544 26.0254 127.544 26.7227V27.7773H119.986V26.0898H125.057V25.8965C125.057 25.5449 124.993 25.2314 124.864 24.9561C124.741 24.6748 124.553 24.4521 124.301 24.2881C124.049 24.124 123.727 24.042 123.334 24.042C123 24.042 122.713 24.1152 122.473 24.2617C122.233 24.4082 122.037 24.6133 121.884 24.877C121.738 25.1406 121.626 25.4512 121.55 25.8086C121.48 26.1602 121.445 26.5469 121.445 26.9688V27.3203C121.445 27.7012 121.497 28.0527 121.603 28.375C121.714 28.6973 121.87 28.9756 122.069 29.21C122.274 29.4443 122.52 29.626 122.807 29.7549C123.1 29.8838 123.431 29.9482 123.8 29.9482C124.257 29.9482 124.682 29.8604 125.075 29.6846C125.473 29.5029 125.816 29.2305 126.103 28.8672L127.333 30.2031C127.134 30.4902 126.862 30.7656 126.516 31.0293C126.176 31.293 125.766 31.5098 125.286 31.6797C124.805 31.8438 124.257 31.9258 123.642 31.9258ZM134.127 29.1221C134.127 28.9404 134.075 28.7764 133.969 28.6299C133.864 28.4834 133.667 28.3486 133.38 28.2256C133.099 28.0967 132.692 27.9795 132.159 27.874C131.678 27.7686 131.23 27.6367 130.814 27.4785C130.404 27.3145 130.046 27.1182 129.742 26.8896C129.443 26.6611 129.208 26.3916 129.039 26.0811C128.869 25.7646 128.784 25.4043 128.784 25C128.784 24.6016 128.869 24.2266 129.039 23.875C129.214 23.5234 129.463 23.2129 129.786 22.9434C130.114 22.668 130.512 22.4541 130.981 22.3018C131.456 22.1436 131.989 22.0645 132.581 22.0645C133.407 22.0645 134.116 22.1963 134.707 22.46C135.305 22.7236 135.762 23.0869 136.079 23.5498C136.401 24.0068 136.562 24.5283 136.562 25.1143H134.031C134.031 24.8682 133.978 24.6484 133.872 24.4551C133.773 24.2559 133.615 24.1006 133.398 23.9893C133.187 23.8721 132.912 23.8135 132.572 23.8135C132.29 23.8135 132.047 23.8633 131.842 23.9629C131.637 24.0566 131.479 24.1855 131.368 24.3496C131.262 24.5078 131.209 24.6836 131.209 24.877C131.209 25.0234 131.239 25.1553 131.297 25.2725C131.362 25.3838 131.464 25.4863 131.605 25.5801C131.746 25.6738 131.927 25.7617 132.15 25.8438C132.378 25.9199 132.66 25.9902 132.994 26.0547C133.679 26.1953 134.291 26.3799 134.831 26.6084C135.37 26.8311 135.797 27.1357 136.114 27.5225C136.43 27.9033 136.588 28.4043 136.588 29.0254C136.588 29.4473 136.495 29.834 136.307 30.1855C136.12 30.5371 135.85 30.8447 135.498 31.1084C135.147 31.3662 134.725 31.5684 134.233 31.7148C133.747 31.8555 133.199 31.9258 132.589 31.9258C131.705 31.9258 130.955 31.7676 130.339 31.4512C129.73 31.1348 129.267 30.7334 128.951 30.2471C128.64 29.7549 128.485 29.251 128.485 28.7354H130.884C130.896 29.0811 130.984 29.3594 131.148 29.5703C131.318 29.7812 131.532 29.9336 131.789 30.0273C132.053 30.1211 132.337 30.168 132.642 30.168C132.97 30.168 133.243 30.124 133.459 30.0361C133.676 29.9424 133.84 29.8193 133.952 29.667C134.069 29.5088 134.127 29.3271 134.127 29.1221Z" fill="#F5F5F5"/>
<defs>
<clipPath id="clip0_1_597">
<rect width="53.5714" height="50" fill="white" transform="translate(0.214294 0.75)"/>
</clipPath>
</defs>
</svg>
