<svg width="429" height="51" viewBox="0 0 429 51" fill="none" xmlns="http://www.w3.org/2000/svg">
<path d="M27 43.53C27.0536 41.01 27.6321 32.46 33.0643 25.53C33.3321 25.18 33.6107 24.85 33.8893 24.53C33.3536 14.85 27 7.22998 27 7.22998C27 7.22998 20.6464 14.85 20.1107 24.49C20.3893 24.81 20.6679 25.14 20.9357 25.49C26.3679 32.46 27 41.01 27 43.53Z" fill="#6F2CFF"/>
<path d="M20.1107 24.49C13.6179 16.98 3.67501 14.3 3.67501 14.3C3.67501 14.3 3.28929 24.8101 9.72858 33.09C16.1679 41.37 27 44.2701 27 44.2701C27 44.2701 20.0786 35.98 20.0786 25.75C20.0786 25.33 20.0893 24.91 20.1107 24.49Z" fill="#D15187"/>
<path d="M27 43.53C26.9464 41.01 26.3678 32.46 20.9357 25.53C20.6679 25.18 20.3893 24.85 20.1107 24.53C20.1107 24.95 20.1107 25.37 20.1107 25.79C20.0786 35.98 27 44.27 27 44.27C27 44.27 27 44.01 27 43.53Z" fill="#A445BB"/>
<path d="M50.325 14.3C50.325 14.3 40.3821 16.98 33.8893 24.49C33.8893 24.91 33.8893 25.33 33.8893 25.75C33.9214 35.98 27 44.2701 27 44.2701C27 44.2701 37.8214 41.3601 44.2714 33.09C50.7214 24.82 50.325 14.3 50.325 14.3Z" fill="#D15187"/>
<path d="M33.8893 24.49C33.6107 24.81 33.3321 25.14 33.0643 25.49C27.6321 32.49 27.0536 41.01 27 43.49C27 43.97 27 44.23 27 44.23C27 44.23 33.9214 35.98 33.9214 25.75C33.9214 25.33 33.9107 24.91 33.8893 24.49Z" fill="#A445BB"/>
<path d="M81.3666 26.1338H78.0795L78.062 24.3232H80.8217C81.308 24.3232 81.7065 24.2617 82.017 24.1387C82.3276 24.0098 82.559 23.8252 82.7114 23.585C82.8696 23.3389 82.9487 23.04 82.9487 22.6885C82.9487 22.29 82.8725 21.9678 82.7202 21.7217C82.5737 21.4756 82.3422 21.2969 82.0258 21.1855C81.7153 21.0742 81.3139 21.0186 80.8217 21.0186H78.9936V31.75H76.3569V18.9531H80.8217C81.5659 18.9531 82.2309 19.0234 82.8168 19.1641C83.4086 19.3047 83.9096 19.5186 84.3198 19.8057C84.7299 20.0928 85.0434 20.4561 85.2602 20.8955C85.477 21.3291 85.5854 21.8447 85.5854 22.4424C85.5854 22.9697 85.4653 23.4561 85.225 23.9014C84.9907 24.3467 84.6186 24.71 84.1088 24.9912C83.6049 25.2725 82.9457 25.4277 82.1313 25.457L81.3666 26.1338ZM81.2524 31.75H77.3588L78.3871 29.6934H81.2524C81.7153 29.6934 82.0932 29.6201 82.3862 29.4736C82.6791 29.3213 82.8959 29.1162 83.0366 28.8584C83.1772 28.6006 83.2475 28.3047 83.2475 27.9707C83.2475 27.5957 83.183 27.2705 83.0541 26.9951C82.9311 26.7197 82.7319 26.5088 82.4565 26.3623C82.1811 26.21 81.8178 26.1338 81.3666 26.1338H78.8266L78.8442 24.3232H82.0082L82.6147 25.0352C83.394 25.0234 84.0209 25.1611 84.4955 25.4482C84.976 25.7295 85.3246 26.0957 85.5414 26.5469C85.7641 26.998 85.8754 27.4814 85.8754 27.9971C85.8754 28.8174 85.6967 29.5088 85.3393 30.0713C84.9819 30.6279 84.4575 31.0469 83.7661 31.3281C83.0805 31.6094 82.2426 31.75 81.2524 31.75ZM92.0717 31.9258C91.3334 31.9258 90.6713 31.8086 90.0854 31.5742C89.4995 31.334 89.0014 31.0029 88.5912 30.5811C88.187 30.1592 87.8764 29.6699 87.6596 29.1133C87.4428 28.5508 87.3344 27.9531 87.3344 27.3203V26.9688C87.3344 26.248 87.437 25.5889 87.642 24.9912C87.8471 24.3936 88.1401 23.875 88.5209 23.4355C88.9077 22.9961 89.3764 22.6592 89.9272 22.4248C90.478 22.1846 91.0991 22.0645 91.7905 22.0645C92.4643 22.0645 93.062 22.1758 93.5834 22.3984C94.1049 22.6211 94.5414 22.9375 94.893 23.3477C95.2504 23.7578 95.52 24.25 95.7016 24.8242C95.8832 25.3926 95.9741 26.0254 95.9741 26.7227V27.7773H88.4155V26.0898H93.4868V25.8965C93.4868 25.5449 93.4223 25.2314 93.2934 24.9561C93.1703 24.6748 92.9828 24.4521 92.7309 24.2881C92.4789 24.124 92.1567 24.042 91.7641 24.042C91.4301 24.042 91.143 24.1152 90.9028 24.2617C90.6625 24.4082 90.4662 24.6133 90.3139 24.877C90.1674 25.1406 90.0561 25.4512 89.9799 25.8086C89.9096 26.1602 89.8745 26.5469 89.8745 26.9688V27.3203C89.8745 27.7012 89.9272 28.0527 90.0327 28.375C90.144 28.6973 90.2993 28.9756 90.4985 29.21C90.7036 29.4443 90.9496 29.626 91.2368 29.7549C91.5297 29.8838 91.8608 29.9482 92.2299 29.9482C92.687 29.9482 93.1118 29.8604 93.5043 29.6846C93.9028 29.5029 94.2455 29.2305 94.5327 28.8672L95.7631 30.2031C95.5639 30.4902 95.2914 30.7656 94.9457 31.0293C94.6059 31.293 94.1957 31.5098 93.7153 31.6797C93.2348 31.8438 92.687 31.9258 92.0717 31.9258ZM102.548 29.6055V25.3691C102.548 25.0645 102.498 24.8037 102.399 24.5869C102.299 24.3643 102.144 24.1914 101.933 24.0684C101.728 23.9453 101.461 23.8838 101.133 23.8838C100.852 23.8838 100.609 23.9336 100.404 24.0332C100.199 24.127 100.04 24.2646 99.9291 24.4463C99.8178 24.6221 99.7621 24.8301 99.7621 25.0703H97.2309C97.2309 24.666 97.3246 24.2822 97.5121 23.9189C97.6996 23.5557 97.9721 23.2363 98.3295 22.9609C98.687 22.6797 99.1118 22.46 99.6039 22.3018C100.102 22.1436 100.659 22.0645 101.274 22.0645C102.012 22.0645 102.668 22.1875 103.243 22.4336C103.817 22.6797 104.268 23.0488 104.596 23.541C104.93 24.0332 105.097 24.6484 105.097 25.3867V29.4561C105.097 29.9775 105.129 30.4053 105.194 30.7393C105.258 31.0674 105.352 31.3545 105.475 31.6006V31.75H102.917C102.794 31.4922 102.701 31.1699 102.636 30.7832C102.578 30.3906 102.548 29.998 102.548 29.6055ZM102.882 25.958L102.9 27.3906H101.485C101.151 27.3906 100.861 27.4287 100.615 27.5049C100.369 27.5811 100.166 27.6895 100.008 27.8301C99.85 27.9648 99.7328 28.123 99.6567 28.3047C99.5864 28.4863 99.5512 28.6855 99.5512 28.9023C99.5512 29.1191 99.601 29.3154 99.7006 29.4912C99.8002 29.6611 99.9438 29.7959 100.131 29.8955C100.319 29.9893 100.539 30.0361 100.79 30.0361C101.171 30.0361 101.502 29.96 101.784 29.8076C102.065 29.6553 102.282 29.4678 102.434 29.2451C102.592 29.0225 102.674 28.8115 102.68 28.6123L103.348 29.6846C103.254 29.9248 103.125 30.1738 102.961 30.4316C102.803 30.6895 102.601 30.9326 102.355 31.1611C102.109 31.3838 101.813 31.5684 101.467 31.7148C101.122 31.8555 100.711 31.9258 100.237 31.9258C99.6332 31.9258 99.0854 31.8057 98.5932 31.5654C98.1069 31.3193 97.7202 30.9824 97.433 30.5547C97.1518 30.1211 97.0112 29.6289 97.0112 29.0781C97.0112 28.5801 97.1049 28.1377 97.2924 27.751C97.4799 27.3643 97.7553 27.0391 98.1186 26.7754C98.4877 26.5059 98.9477 26.3037 99.4985 26.1689C100.049 26.0283 100.688 25.958 101.414 25.958H102.882ZM112.673 29.4736V22.2402H115.205V31.75H112.823L112.673 29.4736ZM112.955 27.5225L113.702 27.5049C113.702 28.1377 113.628 28.7266 113.482 29.2715C113.335 29.8105 113.116 30.2793 112.823 30.6777C112.53 31.0703 112.161 31.3779 111.715 31.6006C111.27 31.8174 110.746 31.9258 110.142 31.9258C109.679 31.9258 109.251 31.8613 108.859 31.7324C108.472 31.5977 108.138 31.3896 107.857 31.1084C107.581 30.8213 107.365 30.4551 107.206 30.0098C107.054 29.5586 106.978 29.0166 106.978 28.3838V22.2402H109.509V28.4014C109.509 28.6826 109.541 28.9199 109.606 29.1133C109.676 29.3066 109.773 29.4648 109.896 29.5879C110.019 29.7109 110.163 29.7988 110.327 29.8516C110.497 29.9043 110.684 29.9307 110.889 29.9307C111.411 29.9307 111.821 29.8252 112.12 29.6143C112.424 29.4033 112.638 29.1162 112.761 28.7529C112.89 28.3838 112.955 27.9736 112.955 27.5225ZM121.796 22.2402V24.0332H116.259V22.2402H121.796ZM117.63 19.8936H120.162V28.8848C120.162 29.1602 120.197 29.3711 120.267 29.5176C120.343 29.6641 120.455 29.7666 120.601 29.8252C120.747 29.8779 120.932 29.9043 121.155 29.9043C121.313 29.9043 121.454 29.8984 121.577 29.8867C121.706 29.8691 121.814 29.8516 121.902 29.834L121.911 31.6973C121.694 31.7676 121.459 31.8232 121.207 31.8643C120.956 31.9053 120.677 31.9258 120.372 31.9258C119.816 31.9258 119.33 31.835 118.914 31.6533C118.503 31.4658 118.187 31.167 117.964 30.7568C117.742 30.3467 117.63 29.8076 117.63 29.1396V19.8936ZM126.059 30.6777L128.581 22.2402H131.297L127.474 33.1826C127.392 33.4229 127.281 33.6807 127.14 33.9561C127.005 34.2314 126.821 34.4922 126.586 34.7383C126.358 34.9902 126.068 35.1953 125.716 35.3535C125.371 35.5117 124.946 35.5908 124.442 35.5908C124.202 35.5908 124.005 35.5762 123.853 35.5469C123.701 35.5176 123.519 35.4766 123.308 35.4238V33.5693C123.372 33.5693 123.44 33.5693 123.51 33.5693C123.581 33.5752 123.648 33.5781 123.712 33.5781C124.046 33.5781 124.319 33.54 124.53 33.4639C124.741 33.3877 124.911 33.2705 125.039 33.1123C125.168 32.96 125.271 32.7607 125.347 32.5146L126.059 30.6777ZM125.004 22.2402L127.07 29.1309L127.43 31.8115L125.707 31.9961L122.289 22.2402H125.004ZM141.923 29.6055V25.3691C141.923 25.0645 141.873 24.8037 141.774 24.5869C141.674 24.3643 141.519 24.1914 141.308 24.0684C141.103 23.9453 140.836 23.8838 140.508 23.8838C140.227 23.8838 139.984 23.9336 139.779 24.0332C139.574 24.127 139.415 24.2646 139.304 24.4463C139.193 24.6221 139.137 24.8301 139.137 25.0703H136.606C136.606 24.666 136.7 24.2822 136.887 23.9189C137.075 23.5557 137.347 23.2363 137.705 22.9609C138.062 22.6797 138.487 22.46 138.979 22.3018C139.477 22.1436 140.034 22.0645 140.649 22.0645C141.387 22.0645 142.043 22.1875 142.618 22.4336C143.192 22.6797 143.643 23.0488 143.971 23.541C144.305 24.0332 144.472 24.6484 144.472 25.3867V29.4561C144.472 29.9775 144.504 30.4053 144.569 30.7393C144.633 31.0674 144.727 31.3545 144.85 31.6006V31.75H142.292C142.169 31.4922 142.076 31.1699 142.011 30.7832C141.953 30.3906 141.923 29.998 141.923 29.6055ZM142.257 25.958L142.275 27.3906H140.86C140.526 27.3906 140.236 27.4287 139.99 27.5049C139.744 27.5811 139.541 27.6895 139.383 27.8301C139.225 27.9648 139.108 28.123 139.032 28.3047C138.961 28.4863 138.926 28.6855 138.926 28.9023C138.926 29.1191 138.976 29.3154 139.076 29.4912C139.175 29.6611 139.319 29.7959 139.506 29.8955C139.694 29.9893 139.914 30.0361 140.165 30.0361C140.546 30.0361 140.877 29.96 141.159 29.8076C141.44 29.6553 141.657 29.4678 141.809 29.2451C141.967 29.0225 142.049 28.8115 142.055 28.6123L142.723 29.6846C142.629 29.9248 142.5 30.1738 142.336 30.4316C142.178 30.6895 141.976 30.9326 141.73 31.1611C141.484 31.3838 141.188 31.5684 140.842 31.7148C140.497 31.8555 140.086 31.9258 139.612 31.9258C139.008 31.9258 138.46 31.8057 137.968 31.5654C137.482 31.3193 137.095 30.9824 136.808 30.5547C136.527 30.1211 136.386 29.6289 136.386 29.0781C136.386 28.5801 136.48 28.1377 136.667 27.751C136.855 27.3643 137.13 27.0391 137.494 26.7754C137.863 26.5059 138.323 26.3037 138.873 26.1689C139.424 26.0283 140.063 25.958 140.789 25.958H142.257ZM148.902 24.2705V31.75H146.371V22.2402H148.744L148.902 24.2705ZM148.533 26.6611H147.847C147.847 25.958 147.938 25.3252 148.12 24.7627C148.301 24.1943 148.556 23.7109 148.884 23.3125C149.212 22.9082 149.602 22.6006 150.053 22.3896C150.51 22.1729 151.02 22.0645 151.582 22.0645C152.028 22.0645 152.435 22.1289 152.804 22.2578C153.173 22.3867 153.49 22.5918 153.753 22.873C154.023 23.1543 154.228 23.5264 154.369 23.9893C154.515 24.4521 154.588 25.0176 154.588 25.6855V31.75H152.039V25.6768C152.039 25.2549 151.981 24.9268 151.864 24.6924C151.747 24.458 151.574 24.2939 151.345 24.2002C151.122 24.1006 150.847 24.0508 150.519 24.0508C150.179 24.0508 149.883 24.1182 149.631 24.2529C149.385 24.3877 149.18 24.5752 149.016 24.8154C148.858 25.0498 148.738 25.3252 148.656 25.6416C148.574 25.958 148.533 26.2979 148.533 26.6611ZM162.129 29.6758V18.25H164.678V31.75H162.384L162.129 29.6758ZM156.118 27.1094V26.9248C156.118 26.1982 156.2 25.5391 156.364 24.9473C156.528 24.3496 156.768 23.8369 157.084 23.4092C157.401 22.9814 157.79 22.6504 158.253 22.416C158.716 22.1816 159.244 22.0645 159.835 22.0645C160.392 22.0645 160.878 22.1816 161.294 22.416C161.716 22.6504 162.074 22.9844 162.367 23.418C162.665 23.8457 162.906 24.3525 163.087 24.9385C163.269 25.5186 163.401 26.1543 163.483 26.8457V27.25C163.401 27.9121 163.269 28.5273 163.087 29.0957C162.906 29.6641 162.665 30.1621 162.367 30.5898C162.074 31.0117 161.716 31.3398 161.294 31.5742C160.872 31.8086 160.38 31.9258 159.818 31.9258C159.226 31.9258 158.699 31.8057 158.236 31.5654C157.779 31.3252 157.392 30.9883 157.076 30.5547C156.765 30.1211 156.528 29.6113 156.364 29.0254C156.2 28.4395 156.118 27.8008 156.118 27.1094ZM158.649 26.9248V27.1094C158.649 27.502 158.678 27.8682 158.737 28.208C158.801 28.5479 158.904 28.8496 159.044 29.1133C159.191 29.3711 159.378 29.5732 159.607 29.7197C159.841 29.8604 160.125 29.9307 160.459 29.9307C160.893 29.9307 161.25 29.834 161.532 29.6406C161.813 29.4414 162.027 29.1689 162.173 28.8232C162.326 28.4775 162.414 28.0791 162.437 27.6279V26.4766C162.419 26.1074 162.367 25.7764 162.279 25.4834C162.197 25.1846 162.074 24.9297 161.91 24.7188C161.751 24.5078 161.552 24.3438 161.312 24.2266C161.078 24.1094 160.799 24.0508 160.477 24.0508C160.149 24.0508 159.868 24.127 159.633 24.2793C159.399 24.4258 159.208 24.6279 159.062 24.8857C158.921 25.1436 158.816 25.4482 158.746 25.7998C158.681 26.1455 158.649 26.5205 158.649 26.9248ZM175.067 29.9482C175.377 29.9482 175.653 29.8896 175.893 29.7725C176.133 29.6494 176.321 29.4795 176.456 29.2627C176.596 29.04 176.669 28.7793 176.675 28.4805H179.057C179.051 29.1484 178.872 29.7432 178.521 30.2646C178.169 30.7803 177.698 31.1875 177.106 31.4863C176.514 31.7793 175.852 31.9258 175.12 31.9258C174.381 31.9258 173.737 31.8027 173.186 31.5566C172.641 31.3105 172.187 30.9707 171.824 30.5371C171.46 30.0977 171.188 29.5879 171.006 29.0078C170.825 28.4219 170.734 27.7949 170.734 27.127V26.8721C170.734 26.1982 170.825 25.5713 171.006 24.9912C171.188 24.4053 171.46 23.8955 171.824 23.4619C172.187 23.0225 172.641 22.6797 173.186 22.4336C173.731 22.1875 174.37 22.0645 175.102 22.0645C175.881 22.0645 176.564 22.2139 177.15 22.5127C177.742 22.8115 178.205 23.2393 178.539 23.7959C178.878 24.3467 179.051 25 179.057 25.7559H176.675C176.669 25.4395 176.602 25.1523 176.473 24.8945C176.35 24.6367 176.168 24.4316 175.928 24.2793C175.694 24.1211 175.404 24.042 175.058 24.042C174.689 24.042 174.387 24.1211 174.153 24.2793C173.918 24.4316 173.737 24.6426 173.608 24.9121C173.479 25.1758 173.388 25.4775 173.335 25.8174C173.289 26.1514 173.265 26.5029 173.265 26.8721V27.127C173.265 27.4961 173.289 27.8506 173.335 28.1904C173.382 28.5303 173.47 28.832 173.599 29.0957C173.734 29.3594 173.918 29.5674 174.153 29.7197C174.387 29.8721 174.692 29.9482 175.067 29.9482ZM180.121 27.0918V26.9072C180.121 26.21 180.22 25.5684 180.419 24.9824C180.619 24.3906 180.909 23.8779 181.289 23.4443C181.67 23.0107 182.139 22.6738 182.696 22.4336C183.252 22.1875 183.891 22.0645 184.612 22.0645C185.332 22.0645 185.974 22.1875 186.537 22.4336C187.099 22.6738 187.571 23.0107 187.952 23.4443C188.338 23.8779 188.631 24.3906 188.831 24.9824C189.03 25.5684 189.129 26.21 189.129 26.9072V27.0918C189.129 27.7832 189.03 28.4248 188.831 29.0166C188.631 29.6025 188.338 30.1152 187.952 30.5547C187.571 30.9883 187.102 31.3252 186.545 31.5654C185.989 31.8057 185.35 31.9258 184.629 31.9258C183.909 31.9258 183.267 31.8057 182.705 31.5654C182.148 31.3252 181.676 30.9883 181.289 30.5547C180.909 30.1152 180.619 29.6025 180.419 29.0166C180.22 28.4248 180.121 27.7832 180.121 27.0918ZM182.652 26.9072V27.0918C182.652 27.4902 182.687 27.8623 182.757 28.208C182.828 28.5537 182.939 28.8584 183.091 29.1221C183.249 29.3799 183.455 29.582 183.706 29.7285C183.958 29.875 184.266 29.9482 184.629 29.9482C184.981 29.9482 185.283 29.875 185.535 29.7285C185.787 29.582 185.989 29.3799 186.141 29.1221C186.293 28.8584 186.405 28.5537 186.475 28.208C186.551 27.8623 186.589 27.4902 186.589 27.0918V26.9072C186.589 26.5205 186.551 26.1572 186.475 25.8174C186.405 25.4717 186.29 25.167 186.132 24.9033C185.98 24.6338 185.778 24.4229 185.526 24.2705C185.274 24.1182 184.969 24.042 184.612 24.042C184.254 24.042 183.95 24.1182 183.698 24.2705C183.452 24.4229 183.249 24.6338 183.091 24.9033C182.939 25.167 182.828 25.4717 182.757 25.8174C182.687 26.1572 182.652 26.5205 182.652 26.9072ZM195.827 29.1221C195.827 28.9404 195.774 28.7764 195.668 28.6299C195.563 28.4834 195.367 28.3486 195.08 28.2256C194.798 28.0967 194.391 27.9795 193.858 27.874C193.377 27.7686 192.929 27.6367 192.513 27.4785C192.103 27.3145 191.746 27.1182 191.441 26.8896C191.142 26.6611 190.908 26.3916 190.738 26.0811C190.568 25.7646 190.483 25.4043 190.483 25C190.483 24.6016 190.568 24.2266 190.738 23.875C190.914 23.5234 191.163 23.2129 191.485 22.9434C191.813 22.668 192.211 22.4541 192.68 22.3018C193.155 22.1436 193.688 22.0645 194.28 22.0645C195.106 22.0645 195.815 22.1963 196.407 22.46C197.004 22.7236 197.461 23.0869 197.778 23.5498C198.1 24.0068 198.261 24.5283 198.261 25.1143H195.73C195.73 24.8682 195.677 24.6484 195.572 24.4551C195.472 24.2559 195.314 24.1006 195.097 23.9893C194.886 23.8721 194.611 23.8135 194.271 23.8135C193.99 23.8135 193.747 23.8633 193.541 23.9629C193.336 24.0566 193.178 24.1855 193.067 24.3496C192.961 24.5078 192.909 24.6836 192.909 24.877C192.909 25.0234 192.938 25.1553 192.997 25.2725C193.061 25.3838 193.164 25.4863 193.304 25.5801C193.445 25.6738 193.626 25.7617 193.849 25.8438C194.078 25.9199 194.359 25.9902 194.693 26.0547C195.378 26.1953 195.991 26.3799 196.53 26.6084C197.069 26.8311 197.497 27.1357 197.813 27.5225C198.129 27.9033 198.288 28.4043 198.288 29.0254C198.288 29.4473 198.194 29.834 198.006 30.1855C197.819 30.5371 197.549 30.8447 197.198 31.1084C196.846 31.3662 196.424 31.5684 195.932 31.7148C195.446 31.8555 194.898 31.9258 194.289 31.9258C193.404 31.9258 192.654 31.7676 192.039 31.4512C191.429 31.1348 190.966 30.7334 190.65 30.2471C190.339 29.7549 190.184 29.251 190.184 28.7354H192.583C192.595 29.0811 192.683 29.3594 192.847 29.5703C193.017 29.7812 193.231 29.9336 193.489 30.0273C193.752 30.1211 194.037 30.168 194.341 30.168C194.669 30.168 194.942 30.124 195.159 30.0361C195.375 29.9424 195.539 29.8193 195.651 29.667C195.768 29.5088 195.827 29.3271 195.827 29.1221ZM202.462 24.209V31.75H199.922V22.2402H202.304L202.462 24.209ZM202.111 26.6611H201.408C201.408 25.999 201.487 25.3896 201.645 24.833C201.809 24.2705 202.046 23.7842 202.357 23.374C202.673 22.958 203.063 22.6357 203.526 22.4072C203.989 22.1787 204.525 22.0645 205.134 22.0645C205.556 22.0645 205.943 22.1289 206.294 22.2578C206.646 22.3809 206.948 22.5771 207.2 22.8467C207.457 23.1104 207.657 23.4561 207.797 23.8838C207.938 24.3057 208.008 24.8125 208.008 25.4043V31.75H205.477V25.6855C205.477 25.252 205.418 24.918 205.301 24.6836C205.184 24.4492 205.017 24.2852 204.8 24.1914C204.589 24.0977 204.334 24.0508 204.036 24.0508C203.707 24.0508 203.42 24.1182 203.174 24.2529C202.934 24.3877 202.735 24.5752 202.577 24.8154C202.418 25.0498 202.301 25.3252 202.225 25.6416C202.149 25.958 202.111 26.2979 202.111 26.6611ZM207.771 26.3711L206.866 26.4854C206.866 25.8643 206.942 25.2871 207.094 24.7539C207.252 24.2207 207.484 23.752 207.789 23.3477C208.099 22.9434 208.483 22.6299 208.94 22.4072C209.397 22.1787 209.924 22.0645 210.522 22.0645C210.979 22.0645 211.395 22.1318 211.77 22.2666C212.145 22.3955 212.464 22.6035 212.728 22.8906C212.997 23.1719 213.203 23.541 213.343 23.998C213.49 24.4551 213.563 25.0146 213.563 25.6768V31.75H211.023V25.6768C211.023 25.2373 210.964 24.9033 210.847 24.6748C210.736 24.4404 210.572 24.2793 210.355 24.1914C210.144 24.0977 209.892 24.0508 209.599 24.0508C209.294 24.0508 209.028 24.1123 208.799 24.2354C208.571 24.3525 208.38 24.5166 208.228 24.7275C208.076 24.9385 207.961 25.1846 207.885 25.4658C207.809 25.7412 207.771 26.043 207.771 26.3711ZM219.9 31.9258C219.162 31.9258 218.499 31.8086 217.914 31.5742C217.328 31.334 216.83 31.0029 216.419 30.5811C216.015 30.1592 215.705 29.6699 215.488 29.1133C215.271 28.5508 215.163 27.9531 215.163 27.3203V26.9688C215.163 26.248 215.265 25.5889 215.47 24.9912C215.675 24.3936 215.968 23.875 216.349 23.4355C216.736 22.9961 217.205 22.6592 217.755 22.4248C218.306 22.1846 218.927 22.0645 219.619 22.0645C220.292 22.0645 220.89 22.1758 221.412 22.3984C221.933 22.6211 222.37 22.9375 222.721 23.3477C223.079 23.7578 223.348 24.25 223.53 24.8242C223.711 25.3926 223.802 26.0254 223.802 26.7227V27.7773H216.244V26.0898H221.315V25.8965C221.315 25.5449 221.25 25.2314 221.122 24.9561C220.998 24.6748 220.811 24.4521 220.559 24.2881C220.307 24.124 219.985 24.042 219.592 24.042C219.258 24.042 218.971 24.1152 218.731 24.2617C218.491 24.4082 218.294 24.6133 218.142 24.877C217.996 25.1406 217.884 25.4512 217.808 25.8086C217.738 26.1602 217.703 26.5469 217.703 26.9688V27.3203C217.703 27.7012 217.755 28.0527 217.861 28.375C217.972 28.6973 218.127 28.9756 218.327 29.21C218.532 29.4443 218.778 29.626 219.065 29.7549C219.358 29.8838 219.689 29.9482 220.058 29.9482C220.515 29.9482 220.94 29.8604 221.332 29.6846C221.731 29.5029 222.074 29.2305 222.361 28.8672L223.591 30.2031C223.392 30.4902 223.12 30.7656 222.774 31.0293C222.434 31.293 222.024 31.5098 221.543 31.6797C221.063 31.8438 220.515 31.9258 219.9 31.9258ZM229.902 22.2402V24.0332H224.365V22.2402H229.902ZM225.736 19.8936H228.267V28.8848C228.267 29.1602 228.302 29.3711 228.372 29.5176C228.449 29.6641 228.56 29.7666 228.706 29.8252C228.853 29.8779 229.038 29.9043 229.26 29.9043C229.418 29.9043 229.559 29.8984 229.682 29.8867C229.811 29.8691 229.919 29.8516 230.007 29.834L230.016 31.6973C229.799 31.7676 229.565 31.8232 229.313 31.8643C229.061 31.9053 228.783 31.9258 228.478 31.9258C227.921 31.9258 227.435 31.835 227.019 31.6533C226.609 31.4658 226.292 31.167 226.07 30.7568C225.847 30.3467 225.736 29.8076 225.736 29.1396V19.8936ZM234.015 22.2402V31.75H231.475V22.2402H234.015ZM231.317 19.7617C231.317 19.3926 231.446 19.0879 231.704 18.8477C231.961 18.6074 232.307 18.4873 232.741 18.4873C233.168 18.4873 233.511 18.6074 233.769 18.8477C234.033 19.0879 234.164 19.3926 234.164 19.7617C234.164 20.1309 234.033 20.4355 233.769 20.6758C233.511 20.916 233.168 21.0361 232.741 21.0361C232.307 21.0361 231.961 20.916 231.704 20.6758C231.446 20.4355 231.317 20.1309 231.317 19.7617ZM240.036 29.9482C240.346 29.9482 240.622 29.8896 240.862 29.7725C241.102 29.6494 241.289 29.4795 241.424 29.2627C241.565 29.04 241.638 28.7793 241.644 28.4805H244.026C244.02 29.1484 243.841 29.7432 243.49 30.2646C243.138 30.7803 242.666 31.1875 242.075 31.4863C241.483 31.7793 240.821 31.9258 240.088 31.9258C239.35 31.9258 238.706 31.8027 238.155 31.5566C237.61 31.3105 237.156 30.9707 236.792 30.5371C236.429 30.0977 236.157 29.5879 235.975 29.0078C235.793 28.4219 235.703 27.7949 235.703 27.127V26.8721C235.703 26.1982 235.793 25.5713 235.975 24.9912C236.157 24.4053 236.429 23.8955 236.792 23.4619C237.156 23.0225 237.61 22.6797 238.155 22.4336C238.7 22.1875 239.338 22.0645 240.071 22.0645C240.85 22.0645 241.533 22.2139 242.119 22.5127C242.71 22.8115 243.173 23.2393 243.507 23.7959C243.847 24.3467 244.02 25 244.026 25.7559H241.644C241.638 25.4395 241.571 25.1523 241.442 24.8945C241.319 24.6367 241.137 24.4316 240.897 24.2793C240.663 24.1211 240.372 24.042 240.027 24.042C239.658 24.042 239.356 24.1211 239.122 24.2793C238.887 24.4316 238.706 24.6426 238.577 24.9121C238.448 25.1758 238.357 25.4775 238.304 25.8174C238.257 26.1514 238.234 26.5029 238.234 26.8721V27.127C238.234 27.4961 238.257 27.8506 238.304 28.1904C238.351 28.5303 238.439 28.832 238.568 29.0957C238.703 29.3594 238.887 29.5674 239.122 29.7197C239.356 29.8721 239.661 29.9482 240.036 29.9482ZM250.635 29.1221C250.635 28.9404 250.582 28.7764 250.477 28.6299C250.372 28.4834 250.175 28.3486 249.888 28.2256C249.607 28.0967 249.2 27.9795 248.666 27.874C248.186 27.7686 247.738 27.6367 247.322 27.4785C246.912 27.3145 246.554 27.1182 246.249 26.8896C245.951 26.6611 245.716 26.3916 245.546 26.0811C245.376 25.7646 245.291 25.4043 245.291 25C245.291 24.6016 245.376 24.2266 245.546 23.875C245.722 23.5234 245.971 23.2129 246.293 22.9434C246.622 22.668 247.02 22.4541 247.489 22.3018C247.963 22.1436 248.497 22.0645 249.088 22.0645C249.914 22.0645 250.623 22.1963 251.215 22.46C251.813 22.7236 252.27 23.0869 252.586 23.5498C252.909 24.0068 253.07 24.5283 253.07 25.1143H250.539C250.539 24.8682 250.486 24.6484 250.38 24.4551C250.281 24.2559 250.122 24.1006 249.906 23.9893C249.695 23.8721 249.419 23.8135 249.08 23.8135C248.798 23.8135 248.555 23.8633 248.35 23.9629C248.145 24.0566 247.987 24.1855 247.875 24.3496C247.77 24.5078 247.717 24.6836 247.717 24.877C247.717 25.0234 247.747 25.1553 247.805 25.2725C247.87 25.3838 247.972 25.4863 248.113 25.5801C248.253 25.6738 248.435 25.7617 248.658 25.8438C248.886 25.9199 249.167 25.9902 249.501 26.0547C250.187 26.1953 250.799 26.3799 251.338 26.6084C251.877 26.8311 252.305 27.1357 252.622 27.5225C252.938 27.9033 253.096 28.4043 253.096 29.0254C253.096 29.4473 253.002 29.834 252.815 30.1855C252.627 30.5371 252.358 30.8447 252.006 31.1084C251.655 31.3662 251.233 31.5684 250.741 31.7148C250.254 31.8555 249.706 31.9258 249.097 31.9258C248.212 31.9258 247.462 31.7676 246.847 31.4512C246.238 31.1348 245.775 30.7334 245.458 30.2471C245.148 29.7549 244.993 29.251 244.993 28.7354H247.392C247.404 29.0811 247.492 29.3594 247.656 29.5703C247.826 29.7812 248.039 29.9336 248.297 30.0273C248.561 30.1211 248.845 30.168 249.15 30.168C249.478 30.168 249.75 30.124 249.967 30.0361C250.184 29.9424 250.348 29.8193 250.459 29.667C250.577 29.5088 250.635 29.3271 250.635 29.1221Z" fill="#F5F5F5"/>
</svg>
