<svg width="429" height="51" viewBox="0 0 429 51" fill="none" xmlns="http://www.w3.org/2000/svg">
<path d="M27 47.1701C39.6749 47.1701 49.95 37.58 49.95 25.7501C49.95 13.9201 39.6749 4.33008 27 4.33008C14.3251 4.33008 4.04999 13.9201 4.04999 25.7501C4.04999 37.58 14.3251 47.1701 27 47.1701Z" fill="#6F2CFF"/>
<path d="M22.2214 24.34C24.0262 24.34 25.4893 22.9745 25.4893 21.29C25.4893 19.6055 24.0262 18.24 22.2214 18.24C20.4166 18.24 18.9536 19.6055 18.9536 21.29C18.9536 22.9745 20.4166 24.34 22.2214 24.34Z" fill="#D15187"/>
<path d="M31.7786 24.34C33.5834 24.34 35.0465 22.9745 35.0465 21.29C35.0465 19.6055 33.5834 18.24 31.7786 18.24C29.9738 18.24 28.5107 19.6055 28.5107 21.29C28.5107 22.9745 29.9738 24.34 31.7786 24.34Z" fill="#D15187"/>
<path d="M22.2214 33.2599C24.0262 33.2599 25.4893 31.8944 25.4893 30.2099C25.4893 28.5254 24.0262 27.1599 22.2214 27.1599C20.4166 27.1599 18.9536 28.5254 18.9536 30.2099C18.9536 31.8944 20.4166 33.2599 22.2214 33.2599Z" fill="#D15187"/>
<path d="M31.7786 33.2599C33.5834 33.2599 35.0465 31.8944 35.0465 30.2099C35.0465 28.5254 33.5834 27.1599 31.7786 27.1599C29.9738 27.1599 28.5107 28.5254 28.5107 30.2099C28.5107 31.8944 29.9738 33.2599 31.7786 33.2599Z" fill="#D15187"/>
<path d="M78.9936 18.9531V31.75H76.3569V18.9531H78.9936ZM84.0912 24.4199V26.4766H78.2729V24.4199H84.0912ZM84.7065 18.9531V21.0186H78.2729V18.9531H84.7065ZM90.9116 29.6055V25.3691C90.9116 25.0645 90.8618 24.8037 90.7621 24.5869C90.6625 24.3643 90.5073 24.1914 90.2963 24.0684C90.0912 23.9453 89.8246 23.8838 89.4965 23.8838C89.2153 23.8838 88.9721 23.9336 88.767 24.0332C88.562 24.127 88.4037 24.2646 88.2924 24.4463C88.1811 24.6221 88.1254 24.8301 88.1254 25.0703H85.5942C85.5942 24.666 85.6879 24.2822 85.8754 23.9189C86.0629 23.5557 86.3354 23.2363 86.6928 22.9609C87.0502 22.6797 87.475 22.46 87.9672 22.3018C88.4653 22.1436 89.0219 22.0645 89.6371 22.0645C90.3754 22.0645 91.0317 22.1875 91.6059 22.4336C92.1801 22.6797 92.6313 23.0488 92.9594 23.541C93.2934 24.0332 93.4604 24.6484 93.4604 25.3867V29.4561C93.4604 29.9775 93.4926 30.4053 93.5571 30.7393C93.6215 31.0674 93.7153 31.3545 93.8383 31.6006V31.75H91.2807C91.1577 31.4922 91.0639 31.1699 90.9995 30.7832C90.9409 30.3906 90.9116 29.998 90.9116 29.6055ZM91.2455 25.958L91.2631 27.3906H89.8481C89.5141 27.3906 89.2241 27.4287 88.978 27.5049C88.7319 27.5811 88.5297 27.6895 88.3715 27.8301C88.2133 27.9648 88.0961 28.123 88.02 28.3047C87.9496 28.4863 87.9145 28.6855 87.9145 28.9023C87.9145 29.1191 87.9643 29.3154 88.0639 29.4912C88.1635 29.6611 88.3071 29.7959 88.4946 29.8955C88.6821 29.9893 88.9018 30.0361 89.1537 30.0361C89.5346 30.0361 89.8657 29.96 90.1469 29.8076C90.4282 29.6553 90.645 29.4678 90.7973 29.2451C90.9555 29.0225 91.0375 28.8115 91.0434 28.6123L91.7114 29.6846C91.6176 29.9248 91.4887 30.1738 91.3246 30.4316C91.1664 30.6895 90.9643 30.9326 90.7182 31.1611C90.4721 31.3838 90.1762 31.5684 89.8305 31.7148C89.4848 31.8555 89.0746 31.9258 88.6 31.9258C87.9965 31.9258 87.4487 31.8057 86.9565 31.5654C86.4702 31.3193 86.0834 30.9824 85.7963 30.5547C85.5151 30.1211 85.3745 29.6289 85.3745 29.0781C85.3745 28.5801 85.4682 28.1377 85.6557 27.751C85.8432 27.3643 86.1186 27.0391 86.4819 26.7754C86.851 26.5059 87.311 26.3037 87.8618 26.1689C88.4125 26.0283 89.0512 25.958 89.7778 25.958H91.2455ZM100.553 29.1221C100.553 28.9404 100.5 28.7764 100.395 28.6299C100.289 28.4834 100.093 28.3486 99.8061 28.2256C99.5248 28.0967 99.1176 27.9795 98.5844 27.874C98.1039 27.7686 97.6557 27.6367 97.2397 27.4785C96.8295 27.3145 96.4721 27.1182 96.1674 26.8896C95.8686 26.6611 95.6342 26.3916 95.4643 26.0811C95.2944 25.7646 95.2094 25.4043 95.2094 25C95.2094 24.6016 95.2944 24.2266 95.4643 23.875C95.6401 23.5234 95.8891 23.2129 96.2114 22.9434C96.5395 22.668 96.9379 22.4541 97.4067 22.3018C97.8813 22.1436 98.4145 22.0645 99.0063 22.0645C99.8325 22.0645 100.541 22.1963 101.133 22.46C101.731 22.7236 102.188 23.0869 102.504 23.5498C102.827 24.0068 102.988 24.5283 102.988 25.1143H100.456C100.456 24.8682 100.404 24.6484 100.298 24.4551C100.199 24.2559 100.04 24.1006 99.8237 23.9893C99.6127 23.8721 99.3373 23.8135 98.9975 23.8135C98.7162 23.8135 98.4731 23.8633 98.268 23.9629C98.0629 24.0566 97.9047 24.1855 97.7934 24.3496C97.6879 24.5078 97.6352 24.6836 97.6352 24.877C97.6352 25.0234 97.6645 25.1553 97.7231 25.2725C97.7875 25.3838 97.8901 25.4863 98.0307 25.5801C98.1713 25.6738 98.353 25.7617 98.5756 25.8438C98.8041 25.9199 99.0854 25.9902 99.4194 26.0547C100.105 26.1953 100.717 26.3799 101.256 26.6084C101.795 26.8311 102.223 27.1357 102.539 27.5225C102.856 27.9033 103.014 28.4043 103.014 29.0254C103.014 29.4473 102.92 29.834 102.733 30.1855C102.545 30.5371 102.276 30.8447 101.924 31.1084C101.573 31.3662 101.151 31.5684 100.659 31.7148C100.172 31.8555 99.6245 31.9258 99.0151 31.9258C98.1303 31.9258 97.3803 31.7676 96.7651 31.4512C96.1557 31.1348 95.6928 30.7334 95.3764 30.2471C95.0659 29.7549 94.9106 29.251 94.9106 28.7354H97.31C97.3217 29.0811 97.4096 29.3594 97.5737 29.5703C97.7436 29.7812 97.9575 29.9336 98.2153 30.0273C98.4789 30.1211 98.7631 30.168 99.0678 30.168C99.3959 30.168 99.6684 30.124 99.8852 30.0361C100.102 29.9424 100.266 29.8193 100.377 29.667C100.495 29.5088 100.553 29.3271 100.553 29.1221ZM107.127 18.25V31.75H104.596V18.25H107.127ZM106.767 26.6611H106.073C106.079 25.999 106.166 25.3896 106.336 24.833C106.506 24.2705 106.749 23.7842 107.066 23.374C107.382 22.958 107.76 22.6357 108.2 22.4072C108.645 22.1787 109.137 22.0645 109.676 22.0645C110.145 22.0645 110.57 22.1318 110.951 22.2666C111.337 22.3955 111.668 22.6064 111.944 22.8994C112.225 23.1865 112.442 23.5645 112.594 24.0332C112.747 24.502 112.823 25.0703 112.823 25.7383V31.75H110.274V25.7207C110.274 25.2988 110.212 24.9678 110.089 24.7275C109.972 24.4814 109.799 24.3086 109.571 24.209C109.348 24.1035 109.073 24.0508 108.745 24.0508C108.381 24.0508 108.071 24.1182 107.813 24.2529C107.561 24.3877 107.359 24.5752 107.206 24.8154C107.054 25.0498 106.943 25.3252 106.872 25.6416C106.802 25.958 106.767 26.2979 106.767 26.6611ZM117.419 22.2402V31.75H114.879V22.2402H117.419ZM114.721 19.7617C114.721 19.3926 114.85 19.0879 115.108 18.8477C115.366 18.6074 115.711 18.4873 116.145 18.4873C116.573 18.4873 116.915 18.6074 117.173 18.8477C117.437 19.0879 117.569 19.3926 117.569 19.7617C117.569 20.1309 117.437 20.4355 117.173 20.6758C116.915 20.916 116.573 21.0361 116.145 21.0361C115.711 21.0361 115.366 20.916 115.108 20.6758C114.85 20.4355 114.721 20.1309 114.721 19.7617ZM119.107 27.0918V26.9072C119.107 26.21 119.206 25.5684 119.406 24.9824C119.605 24.3906 119.895 23.8779 120.276 23.4443C120.657 23.0107 121.125 22.6738 121.682 22.4336C122.239 22.1875 122.877 22.0645 123.598 22.0645C124.319 22.0645 124.96 22.1875 125.523 22.4336C126.085 22.6738 126.557 23.0107 126.938 23.4443C127.325 23.8779 127.618 24.3906 127.817 24.9824C128.016 25.5684 128.116 26.21 128.116 26.9072V27.0918C128.116 27.7832 128.016 28.4248 127.817 29.0166C127.618 29.6025 127.325 30.1152 126.938 30.5547C126.557 30.9883 126.088 31.3252 125.532 31.5654C124.975 31.8057 124.336 31.9258 123.616 31.9258C122.895 31.9258 122.253 31.8057 121.691 31.5654C121.134 31.3252 120.663 30.9883 120.276 30.5547C119.895 30.1152 119.605 29.6025 119.406 29.0166C119.206 28.4248 119.107 27.7832 119.107 27.0918ZM121.638 26.9072V27.0918C121.638 27.4902 121.673 27.8623 121.744 28.208C121.814 28.5537 121.925 28.8584 122.078 29.1221C122.236 29.3799 122.441 29.582 122.693 29.7285C122.945 29.875 123.252 29.9482 123.616 29.9482C123.967 29.9482 124.269 29.875 124.521 29.7285C124.773 29.582 124.975 29.3799 125.127 29.1221C125.28 28.8584 125.391 28.5537 125.461 28.208C125.538 27.8623 125.576 27.4902 125.576 27.0918V26.9072C125.576 26.5205 125.538 26.1572 125.461 25.8174C125.391 25.4717 125.277 25.167 125.119 24.9033C124.966 24.6338 124.764 24.4229 124.512 24.2705C124.26 24.1182 123.956 24.042 123.598 24.042C123.241 24.042 122.936 24.1182 122.684 24.2705C122.438 24.4229 122.236 24.6338 122.078 24.9033C121.925 25.167 121.814 25.4717 121.744 25.8174C121.673 26.1572 121.638 26.5205 121.638 26.9072ZM132.15 24.2705V31.75H129.619V22.2402H131.992L132.15 24.2705ZM131.781 26.6611H131.095C131.095 25.958 131.186 25.3252 131.368 24.7627C131.549 24.1943 131.804 23.7109 132.132 23.3125C132.46 22.9082 132.85 22.6006 133.301 22.3896C133.758 22.1729 134.268 22.0645 134.831 22.0645C135.276 22.0645 135.683 22.1289 136.052 22.2578C136.421 22.3867 136.738 22.5918 137.001 22.873C137.271 23.1543 137.476 23.5264 137.617 23.9893C137.763 24.4521 137.836 25.0176 137.836 25.6855V31.75H135.288V25.6768C135.288 25.2549 135.229 24.9268 135.112 24.6924C134.995 24.458 134.822 24.2939 134.593 24.2002C134.371 24.1006 134.095 24.0508 133.767 24.0508C133.427 24.0508 133.131 24.1182 132.879 24.2529C132.633 24.3877 132.428 24.5752 132.264 24.8154C132.106 25.0498 131.986 25.3252 131.904 25.6416C131.822 25.958 131.781 26.2979 131.781 26.6611Z" fill="#F5F5F5"/>
</svg>
