<svg width="429" height="51" viewBox="0 0 429 51" fill="none" xmlns="http://www.w3.org/2000/svg">
<path d="M27 4.33008C25.7004 4.33089 24.4146 4.57909 23.2212 5.05951C22.0279 5.53993 20.952 6.24247 20.0595 7.12418C19.1669 8.00589 18.4765 9.04824 18.0302 10.1875C17.584 11.3268 17.3915 12.539 17.4643 13.7501L18 22.1701H36L36.5357 13.7501C36.6086 12.539 36.416 11.3268 35.9698 10.1875C35.5236 9.04824 34.8331 8.00589 33.9406 7.12418C33.048 6.24247 31.9722 5.53993 30.7788 5.05951C29.5855 4.57909 28.2997 4.33089 27 4.33008V4.33008Z" stroke="#6F2CFF" stroke-width="2.14" stroke-miterlimit="10"/>
<path d="M44.8286 47.1699H9.17145C8.92956 47.1701 8.69012 47.1247 8.46744 47.0365C8.24476 46.9484 8.04339 46.8192 7.87538 46.6568C7.70736 46.4944 7.57615 46.3021 7.48956 46.0913C7.40298 45.8805 7.36281 45.6555 7.37145 45.4299L8.35716 22.5099C8.37921 22.0784 8.57854 21.6713 8.91374 21.3734C9.24895 21.0754 9.69426 20.9094 10.1572 20.9099H43.8429C44.3058 20.9094 44.7511 21.0754 45.0863 21.3734C45.4215 21.6713 45.6208 22.0784 45.6429 22.5099L46.6286 45.4299C46.6372 45.6555 46.5971 45.8805 46.5105 46.0913C46.4239 46.3021 46.2927 46.4944 46.1247 46.6568C45.9566 46.8192 45.7553 46.9484 45.5326 47.0365C45.3099 47.1247 45.0705 47.1701 44.8286 47.1699Z" fill="#6F2CFF"/>
<path d="M45.6429 22.5099L45.75 25.1099H42.1929V29.3099H11.8071V25.1099H8.25L8.35714 22.5099C8.37919 22.0784 8.57852 21.6713 8.91372 21.3734C9.24893 21.0754 9.69424 20.9094 10.1571 20.9099H43.8429C44.3058 20.9094 44.7511 21.0754 45.0863 21.3734C45.4215 21.6713 45.6208 22.0784 45.6429 22.5099Z" fill="#D15187"/>
<path d="M42.2036 29.3101H11.8072V34.5601H42.2036V29.3101Z" fill="#A445BB"/>
<path d="M29.8179 34.5599C29.82 35.0805 29.6565 35.59 29.3482 36.0238C29.0398 36.4576 28.6005 36.7963 28.0858 36.9969C27.5711 37.1975 27.0042 37.251 26.4569 37.1506C25.9095 37.0503 25.4064 36.8006 25.0113 36.4332C24.6161 36.0658 24.3467 35.5972 24.2371 35.0867C24.1275 34.5763 24.1827 34.047 24.3956 33.5658C24.6086 33.0847 24.9697 32.6733 25.4334 32.3839C25.897 32.0944 26.4422 31.9399 27 31.9399C27.7455 31.9399 28.4606 32.2157 28.9887 32.7067C29.5169 33.1978 29.815 33.8642 29.8179 34.5599Z" fill="#D15187"/>
<path d="M84.5834 29.6934V31.75H78.1411V29.6934H84.5834ZM78.9936 18.9531V31.75H76.3569V18.9531H78.9936ZM91.351 29.4736V22.2402H93.8823V31.75H91.5004L91.351 29.4736ZM91.6323 27.5225L92.3793 27.5049C92.3793 28.1377 92.3061 28.7266 92.1596 29.2715C92.0131 29.8105 91.7934 30.2793 91.5004 30.6777C91.2075 31.0703 90.8383 31.3779 90.393 31.6006C89.9477 31.8174 89.4233 31.9258 88.8198 31.9258C88.3569 31.9258 87.9291 31.8613 87.5366 31.7324C87.1498 31.5977 86.8159 31.3896 86.5346 31.1084C86.2592 30.8213 86.0424 30.4551 85.8842 30.0098C85.7319 29.5586 85.6557 29.0166 85.6557 28.3838V22.2402H88.187V28.4014C88.187 28.6826 88.2192 28.9199 88.2836 29.1133C88.3539 29.3066 88.4506 29.4648 88.5737 29.5879C88.6967 29.7109 88.8403 29.7988 89.0043 29.8516C89.1743 29.9043 89.3618 29.9307 89.5668 29.9307C90.0883 29.9307 90.4985 29.8252 90.7973 29.6143C91.102 29.4033 91.3159 29.1162 91.4389 28.7529C91.5678 28.3838 91.6323 27.9736 91.6323 27.5225ZM97.8549 22.2402L99.4282 25.1318L101.045 22.2402H103.744L101.054 26.8896L103.867 31.75H101.16L99.4457 28.6914L97.7319 31.75H95.0248L97.8373 26.8896L95.1479 22.2402H97.8549ZM110.599 29.4736V22.2402H113.13V31.75H110.748L110.599 29.4736ZM110.88 27.5225L111.627 27.5049C111.627 28.1377 111.554 28.7266 111.408 29.2715C111.261 29.8105 111.041 30.2793 110.748 30.6777C110.456 31.0703 110.086 31.3779 109.641 31.6006C109.196 31.8174 108.671 31.9258 108.068 31.9258C107.605 31.9258 107.177 31.8613 106.785 31.7324C106.398 31.5977 106.064 31.3896 105.783 31.1084C105.507 30.8213 105.29 30.4551 105.132 30.0098C104.98 29.5586 104.904 29.0166 104.904 28.3838V22.2402H107.435V28.4014C107.435 28.6826 107.467 28.9199 107.532 29.1133C107.602 29.3066 107.699 29.4648 107.822 29.5879C107.945 29.7109 108.088 29.7988 108.252 29.8516C108.422 29.9043 108.61 29.9307 108.815 29.9307C109.336 29.9307 109.747 29.8252 110.045 29.6143C110.35 29.4033 110.564 29.1162 110.687 28.7529C110.816 28.3838 110.88 27.9736 110.88 27.5225ZM117.595 24.3145V31.75H115.064V22.2402H117.446L117.595 24.3145ZM120.46 22.1787L120.416 24.5254C120.293 24.5078 120.144 24.4932 119.968 24.4814C119.798 24.4639 119.643 24.4551 119.502 24.4551C119.145 24.4551 118.834 24.502 118.571 24.5957C118.313 24.6836 118.096 24.8154 117.92 24.9912C117.75 25.167 117.622 25.3809 117.534 25.6328C117.452 25.8848 117.405 26.1719 117.393 26.4941L116.883 26.3359C116.883 25.7207 116.945 25.1553 117.068 24.6396C117.191 24.1182 117.37 23.6641 117.604 23.2773C117.844 22.8906 118.137 22.5918 118.483 22.3809C118.829 22.1699 119.224 22.0645 119.669 22.0645C119.81 22.0645 119.954 22.0762 120.1 22.0996C120.247 22.1172 120.367 22.1436 120.46 22.1787ZM124.635 30.6777L127.158 22.2402H129.873L126.05 33.1826C125.968 33.4229 125.857 33.6807 125.716 33.9561C125.581 34.2314 125.397 34.4922 125.163 34.7383C124.934 34.9902 124.644 35.1953 124.292 35.3535C123.947 35.5117 123.522 35.5908 123.018 35.5908C122.778 35.5908 122.581 35.5762 122.429 35.5469C122.277 35.5176 122.095 35.4766 121.884 35.4238V33.5693C121.949 33.5693 122.016 33.5693 122.086 33.5693C122.157 33.5752 122.224 33.5781 122.289 33.5781C122.622 33.5781 122.895 33.54 123.106 33.4639C123.317 33.3877 123.487 33.2705 123.616 33.1123C123.745 32.96 123.847 32.7607 123.923 32.5146L124.635 30.6777ZM123.581 22.2402L125.646 29.1309L126.006 31.8115L124.284 31.9961L120.865 22.2402H123.581Z" fill="#F5F5F5"/>
</svg>
