<svg width="429" height="51" viewBox="0 0 429 51" fill="none" xmlns="http://www.w3.org/2000/svg">
<path d="M50.1107 9.79991L28.125 3.42991C27.8394 3.34643 27.5389 3.31644 27.2409 3.34168C26.9428 3.36692 26.653 3.44688 26.3882 3.57698C26.1233 3.70708 25.8886 3.88474 25.6976 4.09976C25.5066 4.31478 25.3629 4.56292 25.275 4.82991L20.0786 20.4099L26.9678 19.4099C27.566 19.3237 28.1763 19.4629 28.6646 19.7967C29.1528 20.1305 29.479 20.6316 29.5714 21.1899L31.2857 31.2899L42 34.3899C42.2863 34.4735 42.5875 34.5037 42.8863 34.4785C43.1851 34.4534 43.4757 34.3736 43.7414 34.2435C44.0071 34.1135 44.2427 33.9359 44.4348 33.7207C44.6268 33.5056 44.7716 33.2573 44.8607 32.9899L51.6428 12.4699C51.7333 12.2008 51.7653 11.9175 51.737 11.6367C51.7087 11.3558 51.6206 11.0831 51.4779 10.8344C51.3352 10.5858 51.1408 10.3662 50.906 10.1886C50.6712 10.0109 50.4009 9.87879 50.1107 9.79991Z" fill="#D15187"/>
<path d="M18.4286 25.3499L20.0679 20.4099L4.21071 22.7499C3.63428 22.8502 3.12092 23.1528 2.77616 23.5954C2.43141 24.0381 2.28145 24.5872 2.35714 25.1299L5.81785 46.3699C5.91275 46.9264 6.24001 47.425 6.72798 47.7568C7.21595 48.0885 7.82487 48.2263 8.42143 48.1399L31.1786 44.8699C31.7767 44.7837 32.3137 44.4793 32.6713 44.0235C33.029 43.5678 33.178 42.9982 33.0857 42.4399L31.2857 31.2899L19.9393 28.0099C19.6523 27.9289 19.3853 27.7956 19.1537 27.6177C18.9222 27.4398 18.7306 27.221 18.5902 26.9737C18.4497 26.7264 18.3632 26.4556 18.3354 26.1769C18.3077 25.8982 18.3393 25.6171 18.4286 25.3499Z" fill="#6F2CFF"/>
<path d="M27 19.42L20.1107 20.42L18.4286 25.35C18.3391 25.6166 18.307 25.897 18.3341 26.1752C18.3611 26.4534 18.4468 26.7239 18.5862 26.9711C18.7256 27.2182 18.9159 27.4373 19.1463 27.6156C19.3767 27.7939 19.6425 27.9279 19.9286 28.01L31.2857 31.29L29.5715 21.2C29.4788 20.6478 29.1573 20.1516 28.6763 19.8186C28.1952 19.4856 27.5932 19.3425 27 19.42Z" fill="#A445BB"/>
<path d="M35.0143 21.2399C36.2865 21.2399 37.3178 20.2774 37.3178 19.0899C37.3178 17.9025 36.2865 16.9399 35.0143 16.9399C33.742 16.9399 32.7107 17.9025 32.7107 19.0899C32.7107 20.2774 33.742 21.2399 35.0143 21.2399Z" fill="#F5F5F5"/>
<path d="M30.4714 13.1899C31.7436 13.1899 32.775 12.2273 32.775 11.0399C32.775 9.85248 31.7436 8.88989 30.4714 8.88989C29.1992 8.88989 28.1678 9.85248 28.1678 11.0399C28.1678 12.2273 29.1992 13.1899 30.4714 13.1899Z" fill="#F5F5F5"/>
<path d="M43.6393 17.01C44.9115 17.01 45.9428 16.0474 45.9428 14.86C45.9428 13.6725 44.9115 12.71 43.6393 12.71C42.367 12.71 41.3357 13.6725 41.3357 14.86C41.3357 16.0474 42.367 17.01 43.6393 17.01Z" fill="#F5F5F5"/>
<path d="M26.3786 25.4799C27.6508 25.4799 28.6822 24.5173 28.6822 23.3299C28.6822 22.1425 27.6508 21.1799 26.3786 21.1799C25.1064 21.1799 24.075 22.1425 24.075 23.3299C24.075 24.5173 25.1064 25.4799 26.3786 25.4799Z" fill="#F5F5F5"/>
<path d="M39.5464 29.3C40.8187 29.3 41.85 28.3374 41.85 27.15C41.85 25.9626 40.8187 25 39.5464 25C38.2742 25 37.2429 25.9626 37.2429 27.15C37.2429 28.3374 38.2742 29.3 39.5464 29.3Z" fill="#F5F5F5"/>
<path d="M17.775 36.1101C19.0472 36.1101 20.0786 35.1475 20.0786 33.9601C20.0786 32.7726 19.0472 31.8101 17.775 31.8101C16.5028 31.8101 15.4714 32.7726 15.4714 33.9601C15.4714 35.1475 16.5028 36.1101 17.775 36.1101Z" fill="#F5F5F5"/>
<path d="M9.90001 30.7299C11.1722 30.7299 12.2036 29.7673 12.2036 28.5799C12.2036 27.3925 11.1722 26.4299 9.90001 26.4299C8.62778 26.4299 7.59644 27.3925 7.59644 28.5799C7.59644 29.7673 8.62778 30.7299 9.90001 30.7299Z" fill="#F5F5F5"/>
<path d="M25.6393 41.4799C26.9115 41.4799 27.9428 40.5173 27.9428 39.3299C27.9428 38.1425 26.9115 37.1799 25.6393 37.1799C24.367 37.1799 23.3357 38.1425 23.3357 39.3299C23.3357 40.5173 24.367 41.4799 25.6393 41.4799Z" fill="#F5F5F5"/>
<path d="M86.8686 25.0527V25.6592C86.8686 26.6318 86.7368 27.5049 86.4731 28.2783C86.2094 29.0518 85.8373 29.7109 85.3569 30.2559C84.8764 30.7949 84.3022 31.208 83.6342 31.4951C82.9721 31.7822 82.2368 31.9258 81.4282 31.9258C80.6254 31.9258 79.8901 31.7822 79.2221 31.4951C78.56 31.208 77.9858 30.7949 77.4995 30.2559C77.0131 29.7109 76.6352 29.0518 76.3657 28.2783C76.102 27.5049 75.9702 26.6318 75.9702 25.6592V25.0527C75.9702 24.0742 76.102 23.2012 76.3657 22.4336C76.6293 21.6602 77.0014 21.001 77.4819 20.4561C77.9682 19.9111 78.5424 19.4951 79.2045 19.208C79.8725 18.9209 80.6078 18.7773 81.4106 18.7773C82.2192 18.7773 82.9545 18.9209 83.6166 19.208C84.2846 19.4951 84.8588 19.9111 85.3393 20.4561C85.8256 21.001 86.2006 21.6602 86.4643 22.4336C86.7338 23.2012 86.8686 24.0742 86.8686 25.0527ZM84.2055 25.6592V25.0352C84.2055 24.3555 84.144 23.7578 84.0209 23.2422C83.8979 22.7266 83.7162 22.293 83.476 21.9414C83.2358 21.5898 82.9428 21.3262 82.5971 21.1504C82.2514 20.9688 81.8559 20.8779 81.4106 20.8779C80.9653 20.8779 80.5698 20.9688 80.2241 21.1504C79.8842 21.3262 79.5942 21.5898 79.3539 21.9414C79.1196 22.293 78.9409 22.7266 78.8178 23.2422C78.6948 23.7578 78.6332 24.3555 78.6332 25.0352V25.6592C78.6332 26.333 78.6948 26.9307 78.8178 27.4521C78.9409 27.9678 79.1225 28.4043 79.3627 28.7617C79.603 29.1133 79.8959 29.3799 80.2416 29.5615C80.5873 29.7432 80.9828 29.834 81.4282 29.834C81.8735 29.834 82.269 29.7432 82.6147 29.5615C82.9604 29.3799 83.2504 29.1133 83.4848 28.7617C83.7192 28.4043 83.8979 27.9678 84.0209 27.4521C84.144 26.9307 84.2055 26.333 84.2055 25.6592ZM91.0873 24.2705V31.75H88.5561V22.2402H90.9291L91.0873 24.2705ZM90.7182 26.6611H90.0327C90.0327 25.958 90.1235 25.3252 90.3051 24.7627C90.4868 24.1943 90.7416 23.7109 91.0698 23.3125C91.3979 22.9082 91.7875 22.6006 92.2387 22.3896C92.6957 22.1729 93.2055 22.0645 93.768 22.0645C94.2133 22.0645 94.6205 22.1289 94.9897 22.2578C95.3588 22.3867 95.6752 22.5918 95.9389 22.873C96.2084 23.1543 96.4135 23.5264 96.5541 23.9893C96.7006 24.4521 96.7739 25.0176 96.7739 25.6855V31.75H94.225V25.6768C94.225 25.2549 94.1664 24.9268 94.0493 24.6924C93.9321 24.458 93.7592 24.2939 93.5307 24.2002C93.308 24.1006 93.0327 24.0508 92.7045 24.0508C92.3647 24.0508 92.0688 24.1182 91.8168 24.2529C91.5707 24.3877 91.3657 24.5752 91.2016 24.8154C91.0434 25.0498 90.9233 25.3252 90.8412 25.6416C90.7592 25.958 90.7182 26.2979 90.7182 26.6611ZM101.371 18.25V31.75H98.8305V18.25H101.371ZM106.134 22.2402V31.75H103.594V22.2402H106.134ZM103.436 19.7617C103.436 19.3926 103.565 19.0879 103.823 18.8477C104.081 18.6074 104.426 18.4873 104.86 18.4873C105.288 18.4873 105.63 18.6074 105.888 18.8477C106.152 19.0879 106.284 19.3926 106.284 19.7617C106.284 20.1309 106.152 20.4355 105.888 20.6758C105.63 20.916 105.288 21.0361 104.86 21.0361C104.426 21.0361 104.081 20.916 103.823 20.6758C103.565 20.4355 103.436 20.1309 103.436 19.7617ZM110.705 24.2705V31.75H108.173V22.2402H110.546L110.705 24.2705ZM110.335 26.6611H109.65C109.65 25.958 109.741 25.3252 109.922 24.7627C110.104 24.1943 110.359 23.7109 110.687 23.3125C111.015 22.9082 111.405 22.6006 111.856 22.3896C112.313 22.1729 112.823 22.0645 113.385 22.0645C113.831 22.0645 114.238 22.1289 114.607 22.2578C114.976 22.3867 115.292 22.5918 115.556 22.873C115.826 23.1543 116.031 23.5264 116.171 23.9893C116.318 24.4521 116.391 25.0176 116.391 25.6855V31.75H113.842V25.6768C113.842 25.2549 113.784 24.9268 113.666 24.6924C113.549 24.458 113.376 24.2939 113.148 24.2002C112.925 24.1006 112.65 24.0508 112.322 24.0508C111.982 24.0508 111.686 24.1182 111.434 24.2529C111.188 24.3877 110.983 24.5752 110.819 24.8154C110.661 25.0498 110.54 25.3252 110.458 25.6416C110.376 25.958 110.335 26.2979 110.335 26.6611ZM122.693 31.9258C121.955 31.9258 121.292 31.8086 120.706 31.5742C120.121 31.334 119.622 31.0029 119.212 30.5811C118.808 30.1592 118.497 29.6699 118.281 29.1133C118.064 28.5508 117.956 27.9531 117.956 27.3203V26.9688C117.956 26.248 118.058 25.5889 118.263 24.9912C118.468 24.3936 118.761 23.875 119.142 23.4355C119.529 22.9961 119.997 22.6592 120.548 22.4248C121.099 22.1846 121.72 22.0645 122.412 22.0645C123.085 22.0645 123.683 22.1758 124.205 22.3984C124.726 22.6211 125.163 22.9375 125.514 23.3477C125.872 23.7578 126.141 24.25 126.323 24.8242C126.504 25.3926 126.595 26.0254 126.595 26.7227V27.7773H119.037V26.0898H124.108V25.8965C124.108 25.5449 124.043 25.2314 123.914 24.9561C123.791 24.6748 123.604 24.4521 123.352 24.2881C123.1 24.124 122.778 24.042 122.385 24.042C122.051 24.042 121.764 24.1152 121.524 24.2617C121.284 24.4082 121.087 24.6133 120.935 24.877C120.789 25.1406 120.677 25.4512 120.601 25.8086C120.531 26.1602 120.496 26.5469 120.496 26.9688V27.3203C120.496 27.7012 120.548 28.0527 120.654 28.375C120.765 28.6973 120.92 28.9756 121.12 29.21C121.325 29.4443 121.571 29.626 121.858 29.7549C122.151 29.8838 122.482 29.9482 122.851 29.9482C123.308 29.9482 123.733 29.8604 124.125 29.6846C124.524 29.5029 124.867 29.2305 125.154 28.8672L126.384 30.2031C126.185 30.4902 125.913 30.7656 125.567 31.0293C125.227 31.293 124.817 31.5098 124.336 31.6797C123.856 31.8438 123.308 31.9258 122.693 31.9258ZM132.519 18.25H135.05V29.5703L134.795 31.75H132.519V18.25ZM141.071 26.8984V27.083C141.071 27.792 140.995 28.4424 140.842 29.0342C140.696 29.626 140.467 30.1387 140.157 30.5723C139.846 31 139.459 31.334 138.997 31.5742C138.539 31.8086 138 31.9258 137.379 31.9258C136.799 31.9258 136.295 31.8086 135.868 31.5742C135.446 31.3398 135.091 31.0088 134.804 30.5811C134.517 30.1533 134.286 29.6523 134.11 29.0781C133.934 28.5039 133.802 27.877 133.714 27.1973V26.793C133.802 26.1133 133.934 25.4863 134.11 24.9121C134.286 24.3379 134.517 23.8369 134.804 23.4092C135.091 22.9814 135.446 22.6504 135.868 22.416C136.289 22.1816 136.788 22.0645 137.362 22.0645C137.989 22.0645 138.534 22.1846 138.997 22.4248C139.465 22.6592 139.852 22.9932 140.157 23.4268C140.467 23.8545 140.696 24.3643 140.842 24.9561C140.995 25.542 141.071 26.1895 141.071 26.8984ZM138.539 27.083V26.8984C138.539 26.5117 138.51 26.1484 138.452 25.8086C138.399 25.4629 138.305 25.1611 138.17 24.9033C138.036 24.6396 137.851 24.4316 137.617 24.2793C137.388 24.127 137.092 24.0508 136.729 24.0508C136.383 24.0508 136.09 24.1094 135.85 24.2266C135.61 24.3438 135.411 24.5078 135.252 24.7188C135.1 24.9297 134.986 25.1816 134.91 25.4746C134.833 25.7617 134.787 26.0781 134.769 26.4238V27.5752C134.787 28.0381 134.863 28.4482 134.997 28.8057C135.138 29.1572 135.349 29.4355 135.63 29.6406C135.917 29.8398 136.289 29.9395 136.747 29.9395C137.104 29.9395 137.4 29.8691 137.634 29.7285C137.869 29.5879 138.05 29.3887 138.179 29.1309C138.314 28.873 138.408 28.5713 138.46 28.2256C138.513 27.874 138.539 27.4932 138.539 27.083ZM147.021 31.9258C146.283 31.9258 145.621 31.8086 145.035 31.5742C144.449 31.334 143.951 31.0029 143.54 30.5811C143.136 30.1592 142.826 29.6699 142.609 29.1133C142.392 28.5508 142.284 27.9531 142.284 27.3203V26.9688C142.284 26.248 142.386 25.5889 142.591 24.9912C142.796 24.3936 143.089 23.875 143.47 23.4355C143.857 22.9961 144.326 22.6592 144.876 22.4248C145.427 22.1846 146.048 22.0645 146.74 22.0645C147.414 22.0645 148.011 22.1758 148.533 22.3984C149.054 22.6211 149.491 22.9375 149.842 23.3477C150.2 23.7578 150.469 24.25 150.651 24.8242C150.832 25.3926 150.923 26.0254 150.923 26.7227V27.7773H143.365V26.0898H148.436V25.8965C148.436 25.5449 148.372 25.2314 148.243 24.9561C148.12 24.6748 147.932 24.4521 147.68 24.2881C147.428 24.124 147.106 24.042 146.713 24.042C146.379 24.042 146.092 24.1152 145.852 24.2617C145.612 24.4082 145.415 24.6133 145.263 24.877C145.117 25.1406 145.005 25.4512 144.929 25.8086C144.859 26.1602 144.824 26.5469 144.824 26.9688V27.3203C144.824 27.7012 144.876 28.0527 144.982 28.375C145.093 28.6973 145.248 28.9756 145.448 29.21C145.653 29.4443 145.899 29.626 146.186 29.7549C146.479 29.8838 146.81 29.9482 147.179 29.9482C147.636 29.9482 148.061 29.8604 148.454 29.6846C148.852 29.5029 149.195 29.2305 149.482 28.8672L150.712 30.2031C150.513 30.4902 150.241 30.7656 149.895 31.0293C149.555 31.293 149.145 31.5098 148.664 31.6797C148.184 31.8438 147.636 31.9258 147.021 31.9258ZM157.023 22.2402V24.0332H151.486V22.2402H157.023ZM152.857 19.8936H155.388V28.8848C155.388 29.1602 155.423 29.3711 155.494 29.5176C155.57 29.6641 155.681 29.7666 155.828 29.8252C155.974 29.8779 156.159 29.9043 156.381 29.9043C156.539 29.9043 156.68 29.8984 156.803 29.8867C156.932 29.8691 157.04 29.8516 157.128 29.834L157.137 31.6973C156.92 31.7676 156.686 31.8232 156.434 31.8643C156.182 31.9053 155.904 31.9258 155.599 31.9258C155.042 31.9258 154.556 31.835 154.14 31.6533C153.73 31.4658 153.414 31.167 153.191 30.7568C152.968 30.3467 152.857 29.8076 152.857 29.1396V19.8936ZM163.122 22.2402V24.0332H157.585V22.2402H163.122ZM158.956 19.8936H161.488V28.8848C161.488 29.1602 161.523 29.3711 161.593 29.5176C161.669 29.6641 161.781 29.7666 161.927 29.8252C162.074 29.8779 162.258 29.9043 162.481 29.9043C162.639 29.9043 162.78 29.8984 162.903 29.8867C163.032 29.8691 163.14 29.8516 163.228 29.834L163.237 31.6973C163.02 31.7676 162.786 31.8232 162.534 31.8643C162.282 31.9053 162.003 31.9258 161.699 31.9258C161.142 31.9258 160.656 31.835 160.24 31.6533C159.83 31.4658 159.513 31.167 159.29 30.7568C159.068 30.3467 158.956 29.8076 158.956 29.1396V19.8936ZM167.236 22.2402V31.75H164.696V22.2402H167.236ZM164.538 19.7617C164.538 19.3926 164.666 19.0879 164.924 18.8477C165.182 18.6074 165.528 18.4873 165.961 18.4873C166.389 18.4873 166.732 18.6074 166.99 18.8477C167.253 19.0879 167.385 19.3926 167.385 19.7617C167.385 20.1309 167.253 20.4355 166.99 20.6758C166.732 20.916 166.389 21.0361 165.961 21.0361C165.528 21.0361 165.182 20.916 164.924 20.6758C164.666 20.4355 164.538 20.1309 164.538 19.7617ZM171.806 24.2705V31.75H169.275V22.2402H171.648L171.806 24.2705ZM171.437 26.6611H170.751C170.751 25.958 170.842 25.3252 171.024 24.7627C171.206 24.1943 171.46 23.7109 171.789 23.3125C172.117 22.9082 172.506 22.6006 172.957 22.3896C173.414 22.1729 173.924 22.0645 174.487 22.0645C174.932 22.0645 175.339 22.1289 175.708 22.2578C176.078 22.3867 176.394 22.5918 176.658 22.873C176.927 23.1543 177.132 23.5264 177.273 23.9893C177.419 24.4521 177.493 25.0176 177.493 25.6855V31.75H174.944V25.6768C174.944 25.2549 174.885 24.9268 174.768 24.6924C174.651 24.458 174.478 24.2939 174.249 24.2002C174.027 24.1006 173.751 24.0508 173.423 24.0508C173.083 24.0508 172.788 24.1182 172.536 24.2529C172.289 24.3877 172.084 24.5752 171.92 24.8154C171.762 25.0498 171.642 25.3252 171.56 25.6416C171.478 25.958 171.437 26.2979 171.437 26.6611ZM185.438 22.2402H187.732V31.4336C187.732 32.3008 187.539 33.0361 187.152 33.6396C186.771 34.249 186.238 34.709 185.552 35.0195C184.867 35.3359 184.07 35.4941 183.162 35.4941C182.763 35.4941 182.341 35.4414 181.896 35.3359C181.456 35.2305 181.035 35.0664 180.63 34.8438C180.232 34.6211 179.898 34.3398 179.628 34L180.745 32.5059C181.038 32.8457 181.377 33.1094 181.764 33.2969C182.151 33.4902 182.579 33.5869 183.047 33.5869C183.504 33.5869 183.891 33.502 184.207 33.332C184.524 33.168 184.767 32.9248 184.937 32.6025C185.107 32.2861 185.192 31.9023 185.192 31.4512V24.4375L185.438 22.2402ZM179.039 27.1094V26.9248C179.039 26.1982 179.127 25.5391 179.303 24.9473C179.485 24.3496 179.74 23.8369 180.068 23.4092C180.402 22.9814 180.806 22.6504 181.281 22.416C181.755 22.1816 182.291 22.0645 182.889 22.0645C183.522 22.0645 184.052 22.1816 184.48 22.416C184.908 22.6504 185.259 22.9844 185.535 23.418C185.81 23.8457 186.024 24.3525 186.176 24.9385C186.334 25.5186 186.457 26.1543 186.545 26.8457V27.25C186.457 27.9121 186.326 28.5273 186.15 29.0957C185.974 29.6641 185.743 30.1621 185.456 30.5898C185.168 31.0117 184.811 31.3398 184.383 31.5742C183.961 31.8086 183.457 31.9258 182.872 31.9258C182.286 31.9258 181.755 31.8057 181.281 31.5654C180.812 31.3252 180.411 30.9883 180.077 30.5547C179.743 30.1211 179.485 29.6113 179.303 29.0254C179.127 28.4395 179.039 27.8008 179.039 27.1094ZM181.571 26.9248V27.1094C181.571 27.502 181.609 27.8682 181.685 28.208C181.761 28.5479 181.878 28.8496 182.037 29.1133C182.201 29.3711 182.403 29.5732 182.643 29.7197C182.889 29.8604 183.179 29.9307 183.513 29.9307C183.976 29.9307 184.354 29.834 184.647 29.6406C184.94 29.4414 185.16 29.1689 185.306 28.8232C185.453 28.4775 185.538 28.0791 185.561 27.6279V26.4766C185.549 26.1074 185.499 25.7764 185.412 25.4834C185.324 25.1846 185.201 24.9297 185.042 24.7188C184.884 24.5078 184.679 24.3438 184.427 24.2266C184.175 24.1094 183.876 24.0508 183.531 24.0508C183.197 24.0508 182.907 24.127 182.661 24.2793C182.42 24.4258 182.218 24.6279 182.054 24.8857C181.896 25.1436 181.776 25.4482 181.694 25.7998C181.612 26.1455 181.571 26.5205 181.571 26.9248Z" fill="#F5F5F5"/>
</svg>
