<svg width="429" height="51" viewBox="0 0 429 51" fill="none" xmlns="http://www.w3.org/2000/svg">
<path d="M43.3714 26.45C41.4321 31.64 35.9893 37.38 31.5857 41.45C33.0115 42.9757 34.5434 44.4121 36.1714 45.75C36.5073 46.0304 36.9422 46.1854 37.3929 46.1854C37.8435 46.1854 38.2784 46.0304 38.6143 45.75C41.2822 43.54 47.4214 38.03 47.4214 33.9799C47.4248 32.5166 47.0601 31.0729 46.3567 29.765C45.6533 28.4572 44.6308 27.3217 43.3714 26.45Z" fill="#D15187"/>
<path d="M43.3714 26.45C41.8816 25.4129 40.1119 24.7831 38.2605 24.631C36.409 24.4789 34.5487 24.8105 32.8876 25.5888C31.2266 26.3671 29.8302 27.5613 28.8548 29.0379C27.8794 30.5145 27.3633 32.2153 27.3643 33.95C27.3643 36.26 29.3679 39.05 31.5857 41.43C35.9893 37.38 41.4321 31.64 43.3714 26.45Z" fill="#A445BB"/>
<path d="M25.35 5.3301C22.8845 5.32879 20.4429 5.78106 18.1648 6.66106C15.8867 7.54105 13.8168 8.83152 12.0735 10.4587C10.3301 12.0858 8.94746 14.0177 8.00461 16.1439C7.06175 18.2702 6.57718 20.549 6.57859 22.8501C6.57859 31.0301 20.0036 42.4301 24.1393 45.7501C24.4741 46.0203 24.902 46.169 25.3447 46.169C25.7873 46.169 26.2152 46.0203 26.55 45.7501C27.6857 44.8401 29.5179 43.3201 31.5857 41.4301C29.3679 39.0501 27.3643 36.2601 27.3643 33.9501C27.3787 31.6592 28.2937 29.453 29.9357 27.7501C28.7005 28.8517 27.0585 29.4675 25.35 29.4701C23.7878 29.4902 22.2656 29.0086 21.0384 28.1061C19.8113 27.2035 18.9537 25.9348 18.6094 24.5124C18.265 23.09 18.4548 21.6004 19.147 20.2931C19.8392 18.9858 20.9917 17.9401 22.4114 17.3314C23.8312 16.7226 25.4319 16.5877 26.9455 16.9493C28.4591 17.3108 29.7937 18.1468 30.7256 19.3173C31.6575 20.4877 32.1301 21.9215 32.0643 23.3784C31.9986 24.8354 31.3984 26.227 30.3643 27.3201C32.0662 25.7502 34.3155 24.8028 36.7027 24.6505C39.09 24.4981 41.4565 25.151 43.3714 26.4901C43.8496 25.3268 44.1105 24.0957 44.1429 22.8501C44.1443 20.5473 43.659 18.2668 42.7148 16.1393C41.7706 14.0118 40.3861 12.079 38.6404 10.4516C36.8948 8.82417 34.8223 7.53413 32.5418 6.65531C30.2612 5.77649 27.8173 5.32616 25.35 5.3301Z" fill="#6F2CFF"/>
<path d="M82.0786 18.9531V31.75H79.4506V18.9531H82.0786ZM86.0161 18.9531V21.0186H75.5746V18.9531H86.0161ZM89.2768 24.3145V31.75H86.7455V22.2402H89.1274L89.2768 24.3145ZM92.142 22.1787L92.0981 24.5254C91.975 24.5078 91.8256 24.4932 91.6498 24.4814C91.4799 24.4639 91.3246 24.4551 91.184 24.4551C90.8266 24.4551 90.5161 24.502 90.2524 24.5957C89.9946 24.6836 89.7778 24.8154 89.602 24.9912C89.4321 25.167 89.3032 25.3809 89.2153 25.6328C89.1332 25.8848 89.0864 26.1719 89.0746 26.4941L88.5649 26.3359C88.5649 25.7207 88.6264 25.1553 88.7495 24.6396C88.8725 24.1182 89.0512 23.6641 89.2856 23.2773C89.5258 22.8906 89.8188 22.5918 90.1645 22.3809C90.5102 22.1699 90.9057 22.0645 91.351 22.0645C91.4916 22.0645 91.6352 22.0762 91.7817 22.0996C91.9282 22.1172 92.0483 22.1436 92.142 22.1787ZM98.1713 29.6055V25.3691C98.1713 25.0645 98.1215 24.8037 98.0219 24.5869C97.9223 24.3643 97.767 24.1914 97.5561 24.0684C97.351 23.9453 97.0844 23.8838 96.7563 23.8838C96.475 23.8838 96.2319 23.9336 96.0268 24.0332C95.8217 24.127 95.6635 24.2646 95.5522 24.4463C95.4409 24.6221 95.3852 24.8301 95.3852 25.0703H92.8539C92.8539 24.666 92.9477 24.2822 93.1352 23.9189C93.3227 23.5557 93.5952 23.2363 93.9526 22.9609C94.31 22.6797 94.7348 22.46 95.227 22.3018C95.725 22.1436 96.2817 22.0645 96.8969 22.0645C97.6352 22.0645 98.2914 22.1875 98.8657 22.4336C99.4399 22.6797 99.8911 23.0488 100.219 23.541C100.553 24.0332 100.72 24.6484 100.72 25.3867V29.4561C100.72 29.9775 100.752 30.4053 100.817 30.7393C100.881 31.0674 100.975 31.3545 101.098 31.6006V31.75H98.5405C98.4174 31.4922 98.3237 31.1699 98.2592 30.7832C98.2006 30.3906 98.1713 29.998 98.1713 29.6055ZM98.5053 25.958L98.5229 27.3906H97.1078C96.7739 27.3906 96.4838 27.4287 96.2377 27.5049C95.9916 27.5811 95.7895 27.6895 95.6313 27.8301C95.4731 27.9648 95.3559 28.123 95.2797 28.3047C95.2094 28.4863 95.1743 28.6855 95.1743 28.9023C95.1743 29.1191 95.2241 29.3154 95.3237 29.4912C95.4233 29.6611 95.5668 29.7959 95.7543 29.8955C95.9418 29.9893 96.1616 30.0361 96.4135 30.0361C96.7944 30.0361 97.1254 29.96 97.4067 29.8076C97.6879 29.6553 97.9047 29.4678 98.0571 29.2451C98.2153 29.0225 98.2973 28.8115 98.3032 28.6123L98.9711 29.6846C98.8774 29.9248 98.7485 30.1738 98.5844 30.4316C98.4262 30.6895 98.2241 30.9326 97.978 31.1611C97.7319 31.3838 97.436 31.5684 97.0903 31.7148C96.7446 31.8555 96.3344 31.9258 95.8598 31.9258C95.2563 31.9258 94.7084 31.8057 94.2162 31.5654C93.7299 31.3193 93.3432 30.9824 93.0561 30.5547C92.7748 30.1211 92.6342 29.6289 92.6342 29.0781C92.6342 28.5801 92.728 28.1377 92.9155 27.751C93.103 27.3643 93.3784 27.0391 93.7416 26.7754C94.1108 26.5059 94.5707 26.3037 95.1215 26.1689C95.6723 26.0283 96.311 25.958 97.0375 25.958H98.5053ZM105.765 29.9043L107.874 22.2402H110.52L107.312 31.75H105.712L105.765 29.9043ZM104.315 22.2402L106.433 29.9131L106.477 31.75H104.869L101.661 22.2402H104.315ZM115.908 31.9258C115.169 31.9258 114.507 31.8086 113.921 31.5742C113.335 31.334 112.837 31.0029 112.427 30.5811C112.023 30.1592 111.712 29.6699 111.496 29.1133C111.279 28.5508 111.17 27.9531 111.17 27.3203V26.9688C111.17 26.248 111.273 25.5889 111.478 24.9912C111.683 24.3936 111.976 23.875 112.357 23.4355C112.744 22.9961 113.212 22.6592 113.763 22.4248C114.314 22.1846 114.935 22.0645 115.626 22.0645C116.3 22.0645 116.898 22.1758 117.419 22.3984C117.941 22.6211 118.377 22.9375 118.729 23.3477C119.086 23.7578 119.356 24.25 119.538 24.8242C119.719 25.3926 119.81 26.0254 119.81 26.7227V27.7773H112.251V26.0898H117.323V25.8965C117.323 25.5449 117.258 25.2314 117.129 24.9561C117.006 24.6748 116.819 24.4521 116.567 24.2881C116.315 24.124 115.993 24.042 115.6 24.042C115.266 24.042 114.979 24.1152 114.739 24.2617C114.498 24.4082 114.302 24.6133 114.15 24.877C114.003 25.1406 113.892 25.4512 113.816 25.8086C113.746 26.1602 113.71 26.5469 113.71 26.9688V27.3203C113.71 27.7012 113.763 28.0527 113.869 28.375C113.98 28.6973 114.135 28.9756 114.334 29.21C114.539 29.4443 114.786 29.626 115.073 29.7549C115.366 29.8838 115.697 29.9482 116.066 29.9482C116.523 29.9482 116.948 29.8604 117.34 29.6846C117.739 29.5029 118.081 29.2305 118.369 28.8672L119.599 30.2031C119.4 30.4902 119.127 30.7656 118.782 31.0293C118.442 31.293 118.032 31.5098 117.551 31.6797C117.071 31.8438 116.523 31.9258 115.908 31.9258ZM123.923 18.25V31.75H121.383V18.25H123.923ZM132.51 24.9033L134.971 23.3125C135.334 23.0723 135.578 22.8408 135.701 22.6182C135.824 22.3955 135.885 22.1465 135.885 21.8711C135.885 21.5957 135.783 21.3408 135.578 21.1064C135.372 20.8662 135.085 20.7461 134.716 20.7461C134.453 20.7461 134.23 20.8076 134.048 20.9307C133.867 21.0479 133.729 21.2061 133.635 21.4053C133.547 21.6045 133.503 21.8271 133.503 22.0732C133.503 22.3369 133.574 22.6064 133.714 22.8818C133.855 23.1514 134.045 23.4385 134.286 23.7432C134.526 24.042 134.792 24.3672 135.085 24.7188L141.123 31.75H138.249L133.328 26.0547C132.912 25.5391 132.548 25.0674 132.238 24.6396C131.927 24.2061 131.684 23.7842 131.508 23.374C131.332 22.9639 131.245 22.542 131.245 22.1084C131.245 21.4404 131.388 20.8574 131.675 20.3594C131.962 19.8555 132.367 19.4658 132.888 19.1904C133.41 18.9092 134.022 18.7686 134.725 18.7686C135.387 18.7686 135.961 18.9062 136.448 19.1816C136.934 19.4512 137.309 19.8086 137.573 20.2539C137.842 20.6992 137.977 21.1885 137.977 21.7217C137.977 22.1201 137.904 22.4893 137.757 22.8291C137.611 23.1631 137.409 23.4736 137.151 23.7607C136.893 24.042 136.597 24.3027 136.263 24.543L133.459 26.5381C133.243 26.7373 133.079 26.9336 132.967 27.127C132.856 27.3203 132.78 27.5049 132.739 27.6807C132.698 27.8506 132.677 28.0146 132.677 28.1729C132.677 28.5127 132.75 28.8174 132.897 29.0869C133.043 29.3564 133.248 29.5674 133.512 29.7197C133.776 29.8721 134.083 29.9482 134.435 29.9482C134.915 29.9482 135.381 29.8428 135.832 29.6318C136.284 29.4209 136.688 29.1191 137.045 28.7266C137.403 28.3281 137.687 27.8564 137.898 27.3115C138.109 26.7666 138.214 26.166 138.214 25.5098H140.359C140.359 26.166 140.294 26.79 140.165 27.3818C140.037 27.9678 139.829 28.5127 139.541 29.0166C139.254 29.5146 138.873 29.957 138.399 30.3438C138.364 30.373 138.314 30.417 138.249 30.4756C138.191 30.5283 138.141 30.5693 138.1 30.5986C137.538 31.0498 136.952 31.3867 136.342 31.6094C135.733 31.8262 135.053 31.9346 134.303 31.9346C133.448 31.9346 132.706 31.7793 132.08 31.4688C131.458 31.1582 130.978 30.7305 130.638 30.1855C130.304 29.6406 130.137 29.0166 130.137 28.3135C130.137 27.7979 130.237 27.3496 130.436 26.9688C130.641 26.582 130.922 26.2246 131.28 25.8965C131.637 25.5684 132.047 25.2373 132.51 24.9033ZM151.486 22.2402V24.0332H145.949V22.2402H151.486ZM147.32 19.8936H149.851V28.8848C149.851 29.1602 149.886 29.3711 149.956 29.5176C150.033 29.6641 150.144 29.7666 150.29 29.8252C150.437 29.8779 150.622 29.9043 150.844 29.9043C151.002 29.9043 151.143 29.8984 151.266 29.8867C151.395 29.8691 151.503 29.8516 151.591 29.834L151.6 31.6973C151.383 31.7676 151.149 31.8232 150.897 31.8643C150.645 31.9053 150.367 31.9258 150.062 31.9258C149.505 31.9258 149.019 31.835 148.603 31.6533C148.193 31.4658 147.876 31.167 147.654 30.7568C147.431 30.3467 147.32 29.8076 147.32 29.1396V19.8936ZM152.294 27.0918V26.9072C152.294 26.21 152.394 25.5684 152.593 24.9824C152.792 24.3906 153.082 23.8779 153.463 23.4443C153.844 23.0107 154.313 22.6738 154.87 22.4336C155.426 22.1875 156.065 22.0645 156.786 22.0645C157.506 22.0645 158.148 22.1875 158.71 22.4336C159.273 22.6738 159.745 23.0107 160.125 23.4443C160.512 23.8779 160.805 24.3906 161.004 24.9824C161.204 25.5684 161.303 26.21 161.303 26.9072V27.0918C161.303 27.7832 161.204 28.4248 161.004 29.0166C160.805 29.6025 160.512 30.1152 160.125 30.5547C159.745 30.9883 159.276 31.3252 158.719 31.5654C158.163 31.8057 157.524 31.9258 156.803 31.9258C156.082 31.9258 155.441 31.8057 154.878 31.5654C154.322 31.3252 153.85 30.9883 153.463 30.5547C153.082 30.1152 152.792 29.6025 152.593 29.0166C152.394 28.4248 152.294 27.7832 152.294 27.0918ZM154.826 26.9072V27.0918C154.826 27.4902 154.861 27.8623 154.931 28.208C155.001 28.5537 155.113 28.8584 155.265 29.1221C155.423 29.3799 155.628 29.582 155.88 29.7285C156.132 29.875 156.44 29.9482 156.803 29.9482C157.155 29.9482 157.456 29.875 157.708 29.7285C157.96 29.582 158.163 29.3799 158.315 29.1221C158.467 28.8584 158.579 28.5537 158.649 28.208C158.725 27.8623 158.763 27.4902 158.763 27.0918V26.9072C158.763 26.5205 158.725 26.1572 158.649 25.8174C158.579 25.4717 158.464 25.167 158.306 24.9033C158.154 24.6338 157.952 24.4229 157.7 24.2705C157.448 24.1182 157.143 24.042 156.786 24.042C156.428 24.042 156.123 24.1182 155.872 24.2705C155.625 24.4229 155.423 24.6338 155.265 24.9033C155.113 25.167 155.001 25.4717 154.931 25.8174C154.861 26.1572 154.826 26.5205 154.826 26.9072ZM168.484 29.4736V22.2402H171.015V31.75H168.633L168.484 29.4736ZM168.765 27.5225L169.512 27.5049C169.512 28.1377 169.439 28.7266 169.292 29.2715C169.146 29.8105 168.926 30.2793 168.633 30.6777C168.34 31.0703 167.971 31.3779 167.526 31.6006C167.081 31.8174 166.556 31.9258 165.953 31.9258C165.49 31.9258 165.062 31.8613 164.669 31.7324C164.283 31.5977 163.949 31.3896 163.667 31.1084C163.392 30.8213 163.175 30.4551 163.017 30.0098C162.865 29.5586 162.789 29.0166 162.789 28.3838V22.2402H165.32V28.4014C165.32 28.6826 165.352 28.9199 165.416 29.1133C165.487 29.3066 165.583 29.4648 165.706 29.5879C165.83 29.7109 165.973 29.7988 166.137 29.8516C166.307 29.9043 166.495 29.9307 166.7 29.9307C167.221 29.9307 167.631 29.8252 167.93 29.6143C168.235 29.4033 168.449 29.1162 168.572 28.7529C168.701 28.3838 168.765 27.9736 168.765 27.5225ZM175.48 24.3145V31.75H172.949V22.2402H175.331L175.48 24.3145ZM178.345 22.1787L178.301 24.5254C178.178 24.5078 178.029 24.4932 177.853 24.4814C177.683 24.4639 177.528 24.4551 177.387 24.4551C177.03 24.4551 176.719 24.502 176.456 24.5957C176.198 24.6836 175.981 24.8154 175.805 24.9912C175.635 25.167 175.506 25.3809 175.418 25.6328C175.336 25.8848 175.289 26.1719 175.278 26.4941L174.768 26.3359C174.768 25.7207 174.83 25.1553 174.953 24.6396C175.076 24.1182 175.254 23.6641 175.489 23.2773C175.729 22.8906 176.022 22.5918 176.368 22.3809C176.713 22.1699 177.109 22.0645 177.554 22.0645C177.695 22.0645 177.838 22.0762 177.985 22.0996C178.131 22.1172 178.251 22.1436 178.345 22.1787ZM182.212 22.2402V31.75H179.672V22.2402H182.212ZM179.514 19.7617C179.514 19.3926 179.643 19.0879 179.901 18.8477C180.159 18.6074 180.504 18.4873 180.938 18.4873C181.366 18.4873 181.708 18.6074 181.966 18.8477C182.23 19.0879 182.362 19.3926 182.362 19.7617C182.362 20.1309 182.23 20.4355 181.966 20.6758C181.708 20.916 181.366 21.0361 180.938 21.0361C180.504 21.0361 180.159 20.916 179.901 20.6758C179.643 20.4355 179.514 20.1309 179.514 19.7617ZM189.446 29.1221C189.446 28.9404 189.393 28.7764 189.288 28.6299C189.182 28.4834 188.986 28.3486 188.699 28.2256C188.417 28.0967 188.01 27.9795 187.477 27.874C186.997 27.7686 186.548 27.6367 186.132 27.4785C185.722 27.3145 185.365 27.1182 185.06 26.8896C184.761 26.6611 184.527 26.3916 184.357 26.0811C184.187 25.7646 184.102 25.4043 184.102 25C184.102 24.6016 184.187 24.2266 184.357 23.875C184.533 23.5234 184.782 23.2129 185.104 22.9434C185.432 22.668 185.831 22.4541 186.299 22.3018C186.774 22.1436 187.307 22.0645 187.899 22.0645C188.725 22.0645 189.434 22.1963 190.026 22.46C190.623 22.7236 191.081 23.0869 191.397 23.5498C191.719 24.0068 191.88 24.5283 191.88 25.1143H189.349C189.349 24.8682 189.296 24.6484 189.191 24.4551C189.091 24.2559 188.933 24.1006 188.716 23.9893C188.505 23.8721 188.23 23.8135 187.89 23.8135C187.609 23.8135 187.366 23.8633 187.161 23.9629C186.956 24.0566 186.797 24.1855 186.686 24.3496C186.581 24.5078 186.528 24.6836 186.528 24.877C186.528 25.0234 186.557 25.1553 186.616 25.2725C186.68 25.3838 186.783 25.4863 186.923 25.5801C187.064 25.6738 187.246 25.7617 187.468 25.8438C187.697 25.9199 187.978 25.9902 188.312 26.0547C188.997 26.1953 189.61 26.3799 190.149 26.6084C190.688 26.8311 191.116 27.1357 191.432 27.5225C191.748 27.9033 191.907 28.4043 191.907 29.0254C191.907 29.4473 191.813 29.834 191.625 30.1855C191.438 30.5371 191.168 30.8447 190.817 31.1084C190.465 31.3662 190.043 31.5684 189.551 31.7148C189.065 31.8555 188.517 31.9258 187.908 31.9258C187.023 31.9258 186.273 31.7676 185.658 31.4512C185.048 31.1348 184.585 30.7334 184.269 30.2471C183.958 29.7549 183.803 29.251 183.803 28.7354H186.203C186.214 29.0811 186.302 29.3594 186.466 29.5703C186.636 29.7812 186.85 29.9336 187.108 30.0273C187.372 30.1211 187.656 30.168 187.96 30.168C188.289 30.168 188.561 30.124 188.778 30.0361C188.995 29.9424 189.159 29.8193 189.27 29.667C189.387 29.5088 189.446 29.3271 189.446 29.1221ZM196.081 24.209V31.75H193.541V22.2402H195.923L196.081 24.209ZM195.73 26.6611H195.027C195.027 25.999 195.106 25.3896 195.264 24.833C195.428 24.2705 195.665 23.7842 195.976 23.374C196.292 22.958 196.682 22.6357 197.145 22.4072C197.608 22.1787 198.144 22.0645 198.753 22.0645C199.175 22.0645 199.562 22.1289 199.914 22.2578C200.265 22.3809 200.567 22.5771 200.819 22.8467C201.077 23.1104 201.276 23.4561 201.416 23.8838C201.557 24.3057 201.627 24.8125 201.627 25.4043V31.75H199.096V25.6855C199.096 25.252 199.038 24.918 198.92 24.6836C198.803 24.4492 198.636 24.2852 198.419 24.1914C198.208 24.0977 197.954 24.0508 197.655 24.0508C197.327 24.0508 197.039 24.1182 196.793 24.2529C196.553 24.3877 196.354 24.5752 196.196 24.8154C196.038 25.0498 195.92 25.3252 195.844 25.6416C195.768 25.958 195.73 26.2979 195.73 26.6611ZM201.39 26.3711L200.485 26.4854C200.485 25.8643 200.561 25.2871 200.713 24.7539C200.872 24.2207 201.103 23.752 201.408 23.3477C201.718 22.9434 202.102 22.6299 202.559 22.4072C203.016 22.1787 203.543 22.0645 204.141 22.0645C204.598 22.0645 205.014 22.1318 205.389 22.2666C205.764 22.3955 206.083 22.6035 206.347 22.8906C206.617 23.1719 206.822 23.541 206.962 23.998C207.109 24.4551 207.182 25.0146 207.182 25.6768V31.75H204.642V25.6768C204.642 25.2373 204.583 24.9033 204.466 24.6748C204.355 24.4404 204.191 24.2793 203.974 24.1914C203.763 24.0977 203.511 24.0508 203.218 24.0508C202.914 24.0508 202.647 24.1123 202.418 24.2354C202.19 24.3525 201.999 24.5166 201.847 24.7275C201.695 24.9385 201.581 25.1846 201.504 25.4658C201.428 25.7412 201.39 26.043 201.39 26.3711Z" fill="#F5F5F5"/>
</svg>
